<svg width="65" height="14" viewBox="0 0 65 14" fill="none" xmlns="http://www.w3.org/2000/svg">
<path d="M2.6813 14L7 10.7107L11.3187 13.9988L9.70474 8.65145L14 5.60888H8.73735L7 0L5.26265 5.60888H0L4.29402 8.65145L2.6813 14Z" fill="#022C22"/>
<path d="M19.6813 14L24 10.7107L28.3187 13.9988L26.7047 8.65145L31 5.60888H25.7374L24 0L22.2626 5.60888H17L21.294 8.65145L19.6813 14Z" fill="#022C22"/>
<path d="M36.6813 14L41 10.7107L45.3187 13.9988L43.7047 8.65145L48 5.60888H42.7374L41 0L39.2626 5.60888H34L38.294 8.65145L36.6813 14Z" fill="#022C22"/>
<path fill-rule="evenodd" clip-rule="evenodd" d="M58 10.7107L53.6813 14L55.294 8.65145L51 5.60888H56.2626L58 0V10.7107Z" fill="#022C22"/>
<path d="M58 10.7107L62.3187 13.9988L60.7047 8.65145L65 5.60888H59.7374L58 0V10.7107Z" fill="#C8E3DC"/>
</svg>
