<svg width="528" height="1024" viewBox="0 0 528 1024" fill="none" xmlns="http://www.w3.org/2000/svg">
<path d="M321.986 1421.88C321.986 1421.88 24.4585 1134.32 12.8267 932.646C1.0486 728.436 286.717 665.852 273.708 461.593C261.186 264.99 -26.1705 -15.5747 -26.1705 -15.5747" stroke="#2DD4BF" stroke-width="2"/>
<path d="M336.986 1272.88C336.986 1272.88 39.4585 985.322 27.8267 783.646C16.0486 579.436 301.717 516.852 288.708 312.593C276.186 115.99 -11.1705 -164.575 -11.1705 -164.575" stroke="#2DD4BF" stroke-width="2"/>
<path d="M329.946 1340.16C329.946 1340.16 31.5844 1052.49 19.858 850.806C7.98426 646.583 294.343 584.09 281.235 379.818C268.619 183.202 -19.5445 -97.4677 -19.5445 -97.4677" stroke="#2DD4BF" stroke-width="2"/>
<path d="M344.946 1191.16C344.946 1191.16 46.5844 903.494 34.858 701.806C22.9843 497.583 309.343 435.09 296.235 230.818C283.619 34.2021 -4.54447 -246.468 -4.54447 -246.468" stroke="#2DD4BF" stroke-width="2"/>
<path d="M325.879 1381.68C325.879 1381.68 28.352 1094.13 16.7202 892.454C4.94216 688.244 290.61 625.66 277.601 421.402C265.08 224.798 -22.2769 -55.7666 -22.2769 -55.7666" stroke="#2DD4BF" stroke-width="2"/>
<path d="M340.879 1232.68C340.879 1232.68 43.352 945.13 31.7202 743.454C19.9422 539.244 305.61 476.66 292.601 272.402C280.08 75.7979 -7.27694 -204.767 -7.27694 -204.767" stroke="#2DD4BF" stroke-width="2"/>
<path d="M333.838 1299.96C333.838 1299.96 36.3105 1012.41 24.6787 810.735C12.9007 606.524 298.569 543.941 285.56 339.682C273.038 143.078 -14.3184 -137.486 -14.3184 -137.486" stroke="#2DD4BF" stroke-width="2"/>
<path d="M348.838 1150.96C348.838 1150.96 51.3105 863.41 39.6787 661.735C27.9007 457.524 313.569 394.941 300.56 190.682C288.038 -5.92185 0.681557 -286.486 0.681557 -286.486" stroke="#2DD4BF" stroke-width="2"/>
<path d="M321.986 1421.88C321.986 1421.88 24.4585 1134.32 12.8267 932.646C1.0486 728.436 286.717 665.852 273.708 461.593C261.186 264.99 -26.1705 -15.5747 -26.1705 -15.5747" stroke="#2DD4BF" stroke-width="2"/>
<path d="M336.986 1272.88C336.986 1272.88 39.4585 985.322 27.8267 783.646C16.0486 579.436 301.717 516.852 288.708 312.593C276.186 115.99 -11.1705 -164.575 -11.1705 -164.575" stroke="#2DD4BF" stroke-width="2"/>
<path d="M329.946 1340.16C329.946 1340.16 31.5844 1052.49 19.858 850.806C7.98426 646.583 294.343 584.09 281.235 379.818C268.619 183.202 -19.5445 -97.4677 -19.5445 -97.4677" stroke="#2DD4BF" stroke-width="2"/>
<path d="M344.946 1191.16C344.946 1191.16 46.5844 903.494 34.858 701.806C22.9843 497.583 309.343 435.09 296.235 230.818C283.619 34.2021 -4.54447 -246.468 -4.54447 -246.468" stroke="#2DD4BF" stroke-width="2"/>
<path d="M325.879 1381.68C325.879 1381.68 28.352 1094.13 16.7202 892.454C4.94216 688.244 290.61 625.66 277.601 421.402C265.08 224.798 -22.2769 -55.7666 -22.2769 -55.7666" stroke="#2DD4BF" stroke-width="2"/>
<path d="M340.879 1232.68C340.879 1232.68 43.352 945.13 31.7202 743.454C19.9422 539.244 305.61 476.66 292.601 272.402C280.08 75.7979 -7.27694 -204.767 -7.27694 -204.767" stroke="#2DD4BF" stroke-width="2"/>
<path d="M333.838 1299.96C333.838 1299.96 36.3105 1012.41 24.6787 810.735C12.9007 606.524 298.569 543.941 285.56 339.682C273.038 143.078 -14.3184 -137.486 -14.3184 -137.486" stroke="#2DD4BF" stroke-width="2"/>
<path d="M348.838 1150.96C348.838 1150.96 51.3105 863.41 39.6787 661.735C27.9007 457.524 313.569 394.941 300.56 190.682C288.038 -5.92185 0.681557 -286.486 0.681557 -286.486" stroke="#2DD4BF" stroke-width="2"/>
<path d="M318.91 1435.04C318.91 1435.04 21.3823 1147.49 9.75048 945.812C-2.02757 741.602 283.641 679.018 270.632 474.759C258.11 278.156 -29.2467 -2.40869 -29.2467 -2.40869" stroke="#2DD4BF" stroke-width="2"/>
<path d="M333.91 1286.04C333.91 1286.04 36.3823 998.488 24.7505 796.812C12.9724 592.602 298.641 530.018 285.632 325.759C273.11 129.156 -14.2467 -151.409 -14.2467 -151.409" stroke="#2DD4BF" stroke-width="2"/>
<path d="M326.87 1353.32C326.87 1353.32 29.3428 1065.77 17.7109 864.093C5.93288 659.882 291.601 597.299 278.592 393.04C266.07 196.437 -21.2862 -84.1279 -21.2862 -84.1279" stroke="#2DD4BF" stroke-width="2"/>
<path d="M341.87 1204.32C341.87 1204.32 44.3428 916.769 32.7109 715.093C20.9329 510.882 306.601 448.299 293.592 244.04C281.07 47.4366 -6.28622 -233.128 -6.28622 -233.128" stroke="#2DD4BF" stroke-width="2"/>
<path d="M324.137 1395.02C324.137 1395.02 25.7753 1107.36 14.0489 905.673C2.17518 701.449 288.534 638.956 275.426 434.684C262.809 238.068 -25.3536 -42.6015 -25.3536 -42.6015" stroke="#2DD4BF" stroke-width="2"/>
<path d="M339.137 1246.02C339.137 1246.02 40.7753 958.361 29.0489 756.673C17.1752 552.449 303.534 489.956 290.426 285.684C277.809 89.0683 -10.3536 -191.601 -10.3536 -191.601" stroke="#2DD4BF" stroke-width="2"/>
<path d="M330.763 1313.13C330.763 1313.13 33.2353 1025.58 21.6035 823.9C9.82546 619.69 295.494 557.106 282.485 352.847C269.963 156.244 -17.3936 -124.321 -17.3936 -124.321" stroke="#2DD4BF" stroke-width="2"/>
<path d="M345.763 1164.13C345.763 1164.13 48.2353 876.576 36.6035 674.9C24.8255 470.69 310.494 408.106 297.485 203.847C284.963 7.24368 -2.39364 -273.321 -2.39364 -273.321" stroke="#2DD4BF" stroke-width="2"/>
<path d="M322.394 1408.36C322.394 1408.36 24.8672 1120.81 13.2353 919.133C1.45729 714.922 287.126 652.339 274.116 448.08C261.595 251.477 -25.7618 -29.0879 -25.7618 -29.0879" stroke="#2DD4BF" stroke-width="2"/>
<path d="M337.394 1259.36C337.394 1259.36 39.8672 971.809 28.2353 770.133C16.4573 565.922 302.126 503.339 289.116 299.08C276.595 102.477 -10.7618 -178.088 -10.7618 -178.088" stroke="#2DD4BF" stroke-width="2"/>
<path d="M330.354 1326.64C330.354 1326.64 32.8267 1039.09 21.1948 837.414C9.41677 633.204 295.085 570.62 282.076 366.362C269.554 169.758 -17.8023 -110.807 -17.8023 -110.807" stroke="#2DD4BF" stroke-width="2"/>
<path d="M345.354 1177.64C345.354 1177.64 47.8267 890.09 36.1948 688.414C24.4168 484.204 310.085 421.62 297.076 217.362C284.554 20.7578 -2.80233 -259.807 -2.80233 -259.807" stroke="#2DD4BF" stroke-width="2"/>
<path d="M327.621 1368.34C327.621 1368.34 29.2602 1080.68 17.5338 878.994C5.66004 674.771 292.019 612.278 278.911 408.006C266.294 211.39 -21.8687 -69.2802 -21.8687 -69.2802" stroke="#2DD4BF" stroke-width="2"/>
<path d="M342.621 1219.34C342.621 1219.34 44.2602 931.682 32.5338 729.994C20.66 525.771 307.019 463.278 293.911 259.006C281.294 62.3896 -6.86869 -218.28 -6.86869 -218.28" stroke="#2DD4BF" stroke-width="2"/>
<path d="M334.246 1286.45C334.246 1286.45 36.7192 998.897 25.0874 797.221C13.3093 593.01 298.978 530.427 285.968 326.168C273.447 129.564 -13.9098 -151 -13.9098 -151" stroke="#2DD4BF" stroke-width="2"/>
<path d="M349.246 1137.45C349.246 1137.45 51.7192 849.897 40.0874 648.221C28.3093 444.01 313.978 381.427 300.968 177.168C288.447 -19.4355 1.09025 -300 1.09025 -300" stroke="#2DD4BF" stroke-width="2"/>
</svg>
