<svg width="84" height="84" viewBox="0 0 84 84" fill="none" xmlns="http://www.w3.org/2000/svg">
<path fill-rule="evenodd" clip-rule="evenodd" d="M0.5 42C0.5 19.0802 19.0802 0.5 42 0.5C64.9198 0.5 83.5 19.0802 83.5 42C83.5 64.9198 64.9198 83.5 42 83.5C19.0802 83.5 0.5 64.9198 0.5 42ZM4.5 42C4.5 21.2893 21.2893 4.5 42 4.5C62.7107 4.5 79.5 21.2893 79.5 42C79.5 62.7107 62.7107 79.5 42 79.5C21.2893 79.5 4.5 62.7107 4.5 42Z" fill="#92AF19"/>
<path d="M72.7678 42.7678C73.7441 41.7915 73.7441 40.2085 72.7678 39.2322L56.8579 23.3223C55.8816 22.346 54.2986 22.346 53.3223 23.3223C52.346 24.2986 52.346 25.8816 53.3223 26.8579L67.4645 41L53.3223 55.1421C52.346 56.1184 52.346 57.7014 53.3223 58.6777C54.2986 59.654 55.8816 59.654 56.8579 58.6777L72.7678 42.7678ZM15 43.5H71V38.5H15V43.5Z" fill="#92AF19"/>
</svg>
