<svg width="24" height="24" viewBox="0 0 24 24" fill="none" xmlns="http://www.w3.org/2000/svg">
<path d="M11.5781 0.8745C7.78289 0.8745 4.69336 3.92231 4.69336 7.70067C4.69336 9.83958 5.43202 10.8413 6.25491 12.1465C6.80363 13.017 7.36898 14.0173 7.686 15.4542H15.4248C15.7402 13.9829 16.3112 12.9642 16.8647 12.085C17.6888 10.7763 18.4263 9.79228 18.4263 7.70072C18.4263 3.91978 15.3735 0.8745 11.5781 0.8745ZM6.90094 6.87009L7.98923 7.82812L9.84375 9.45998L11.3057 7.86038L11.6235 7.51172L11.9473 7.85597L13.3887 9.38972L15.2623 7.82081L16.3257 6.93019L15.9668 8.27053L14.2852 14.5444L13.4385 14.3174L14.7613 9.38381L13.6348 10.3272L13.317 10.5923L13.0342 10.2904L11.6323 8.80073L10.1997 10.3681L9.90966 10.686L9.58739 10.4018L8.49755 9.44381L9.80723 14.329L8.96048 14.5546L7.27594 8.27039L6.90094 6.87009ZM7.95998 16.3301V18.2578L14.7656 16.3301H7.95998ZM15.1597 17.1299L7.95994 19.1704V20.5503L15.1597 18.5112V17.1299ZM15.1597 19.4209L9.56109 21.0073H15.1597V19.4209ZM8.94581 21.8833V22.8458H14.2559V21.8834L8.94581 21.8833Z" fill="#033126"/>
</svg>
