<svg width="187" height="184" viewBox="0 0 187 184" fill="none" xmlns="http://www.w3.org/2000/svg">
<path d="M47 110.788L90.8009 117.721L93.257 113.642L89.1635 109.564L91.6196 105.078L87.526 102.223L90.8009 97.3296L85.8886 94.067L89.1635 89.581L84.2512 85.095L87.526 81.0168L83.0231 76.9386L85.8886 72.4525L81.3857 68.7821L84.2512 64.2961L79.7483 61.0335L83.0231 56.1397L78.9296 52.0614L81.3857 48.3911L77.2922 44.3128L79.7483 40.2346L75.6548 36.1564L78.1109 32.0782L74.4267 28L53.5497 28L47 110.788Z" fill="#022C22"/>
<path fill-rule="evenodd" clip-rule="evenodd" d="M47 118.022L47 161.114C47.7242 163.911 51.6913 166.384 56.4151 164.808C56.6461 161.859 57.0382 160.659 58.0526 159.062L82.6138 161.114C82.9509 161.959 83.051 162.768 83.1458 163.532C83.3206 164.944 83.4769 166.206 85.0699 167.27C87.526 168.912 90.3915 167.27 90.3915 167.27C92.3623 165.781 92.6766 165.151 93.2142 164.073L93.257 163.987L93.257 125.409L92.0289 123.767L49.0468 116.38L47 118.022ZM80.567 153.317L58.8713 150.854C56.7378 149.872 55.8325 148.983 54.7777 146.75L54.7777 132.796C56.1742 130.704 57.0725 129.996 58.8713 129.513L81.3857 132.796C83.7354 133.788 84.4126 134.661 85.0699 136.49L85.0699 149.212C84.0102 151.343 83.0481 152.26 80.567 153.317ZM82.5307 129.513L59.4022 126.436L58.8713 123.084L81.8603 126.436L82.5307 129.513Z" fill="#022C22"/>
<path d="M130.377 48.7457H122.002V103.786H130.377V48.7457Z" fill="#022C22"/>
<path d="M132.771 112.96H120.008C119.341 110.141 119.602 108.773 122.002 106.977H130.377C133.002 108.881 133.12 110.295 132.771 112.96Z" fill="#022C22"/>
<path d="M132.771 116.15H120.008V158.029H132.771V116.15Z" fill="#022C22"/>
<path d="M120.008 161.22L118.412 164.41C119.645 167.523 120.217 167.835 121.204 168H131.175C132.74 166.989 133.425 166.263 133.967 164.41L132.771 161.22H120.008Z" fill="#022C22"/>
<path d="M130.377 45.9538H122.002C117.496 39.249 112.843 39.4085 100.065 47.948C99.4866 39.2652 102.651 35.3912 113.626 30H130.377C129.181 30 131.973 33.1908 131.973 33.1908L135.562 34.7861H138.753V32.3931C141.013 32.526 145.534 32.7121 145.534 32.3931V45.9538H138.753V43.1618L137.557 41.9653H133.169L130.377 45.9538Z" fill="#022C22"/>
<path fill-rule="evenodd" clip-rule="evenodd" d="M93.0109 0C142.72 0 185.953 42.7944 186.505 92.5C187.064 142.755 143.269 184 93.0109 184C42.753 184 -0.553046 142.755 0.00534069 92.5C0.557625 42.7944 43.3022 0 93.0109 0ZM11.0109 92.5C11.0109 47.2127 47.7235 10.5 93.0109 10.5C138.298 10.5 175.011 47.2127 175.011 92.5C175.011 98.506 174.365 104.361 173.139 110C165.122 146.879 132.292 174.5 93.0109 174.5C47.7235 174.5 11.0109 137.787 11.0109 92.5Z" fill="#022C22"/>
</svg>
