<svg width="24" height="24" viewBox="0 0 24 24" fill="none" xmlns="http://www.w3.org/2000/svg">
<path d="M12 17.5C12.2833 17.5 12.521 17.404 12.713 17.212C12.905 17.02 13.0007 16.7827 13 16.5H11C11 16.7833 11.096 17.021 11.288 17.213C11.48 17.405 11.7173 17.5007 12 17.5ZM8 16H16V15H15V12.65C15 11.9167 14.8 11.25 14.4 10.65C14 10.05 13.45 9.66667 12.75 9.5V9.25C12.75 9.03333 12.679 8.85433 12.537 8.713C12.395 8.57167 12.216 8.50067 12 8.5C11.7833 8.5 11.6043 8.571 11.463 8.713C11.3217 8.855 11.2507 9.034 11.25 9.25V9.5C10.55 9.66667 10 10.05 9.6 10.65C9.2 11.25 9 11.9167 9 12.65V15H8V16ZM4 21V9L12 3L20 9V21H4Z" fill="#033126"/>
</svg>
