<svg width="214" height="255" viewBox="0 0 214 255" fill="none" xmlns="http://www.w3.org/2000/svg">
<path d="M128.282 0L175.966 5.36215L89.2395 122.734L184.311 110.222L44.8329 255L109.208 142.991L37.3822 149.246L128.282 0Z" fill="#1F3F20"/>
<path d="M152.124 46.472L158.979 38.1308C206.286 67.8685 227.378 117.683 205.105 171.887C184.222 214.601 153.513 235.762 109.208 237.461C98.461 237.896 87.2239 236.371 75.232 232.956L82.9808 223.125C127.252 233.714 168.214 214.791 192.729 171.887C209.843 126.702 199.656 77.8125 152.124 46.472Z" fill="#1F3F20"/>
<path d="M55.86 226.104L61.8206 215.082C25.5333 195.62 7.97327 159.874 13.6951 110.222C26.9023 67.44 56.8361 39.3516 99.3726 38.1308L105.929 25.6192C60.9455 26.7857 22.47 48.3368 3.28175 103.072C-7.36655 153.78 7.3173 191.293 55.86 226.104Z" fill="#1F3F20"/>
</svg>
