<svg width="187" height="184" viewBox="0 0 187 184" fill="none" xmlns="http://www.w3.org/2000/svg">
<path fill-rule="evenodd" clip-rule="evenodd" d="M93.0109 0C142.72 0 185.953 42.7944 186.505 92.5C187.064 142.755 143.269 184 93.0109 184C42.753 184 -0.553046 142.755 0.00534069 92.5C0.557625 42.7944 43.3022 0 93.0109 0ZM11.0109 92.5C11.0109 47.2127 47.7235 10.5 93.0109 10.5C138.298 10.5 175.011 47.2127 175.011 92.5C175.011 98.506 174.365 104.361 173.139 110C165.122 146.879 132.292 174.5 93.0109 174.5C47.7235 174.5 11.0109 137.787 11.0109 92.5Z" fill="#022C22"/>
<g clip-path="url(#clip0_174_42)">
<path d="M54.9832 86.0207C54.9832 86.0207 52.9084 100.026 52.9084 110.919C52.9084 115.587 53.6865 119.477 54.2052 122.59C54.9832 125.961 52.649 129.333 49.0181 129.333C46.9432 129.333 44.609 128.036 44.0903 125.961C43.0529 122.849 42.0155 117.662 41.7561 111.178C41.7561 100.285 43.831 86.28 43.831 86.28L54.9832 86.0207ZM69.5071 86.0207C69.5071 86.0207 71.582 100.026 71.582 110.919C71.582 115.587 70.8039 119.477 70.2852 122.59C69.5071 125.961 71.8413 129.333 75.4723 129.333C77.5471 129.333 79.8813 128.036 80.4 125.961C81.4374 122.849 82.4749 117.662 82.7342 111.178C82.7342 100.285 80.6594 86.28 80.6594 86.28L69.5071 86.0207ZM74.9536 71.2374L74.9536 56.7136L67.6916 45.8206L65.0981 45.8206L65.0981 57.751C66.6542 58.7884 67.6916 60.3445 67.6916 62.4194C67.6916 65.5316 65.3574 67.8658 62.2452 67.8658C59.1329 67.8658 56.7987 65.5316 56.7987 62.4194C56.7987 60.3445 58.0955 58.529 59.6516 57.4916L59.3923 45.8206L56.7987 45.8206L49.5368 56.7136L49.5368 71.2374L45.9058 82.1303L55.7613 82.1303L57.8361 74.8684L66.1355 74.8684L68.7291 82.1303L78.5845 82.1303L74.9536 71.2374Z" fill="#022C22"/>
</g>
<path d="M146.234 79.9746H123.5V43.0312L100.766 97.0254H123.5V133.969L146.234 79.9746Z" fill="#022C22"/>
<defs>
<clipPath id="clip0_174_42">
<rect width="88.028" height="88.028" fill="white" transform="translate(62.2452 30) rotate(45)"/>
</clipPath>
</defs>
</svg>
