<svg width="24" height="24" viewBox="0 0 24 24" fill="none" xmlns="http://www.w3.org/2000/svg">
<path d="M9.46406 1.17188C9.56719 1.80281 9.8625 2.67703 10.2281 3.48187C10.6828 4.485 11.2734 5.42812 11.55 5.7C12.2484 6.40312 12.8906 6.70312 13.5 6.70312C14.1094 6.70312 14.7516 6.40312 15.45 5.7C15.7266 5.42812 16.3172 4.485 16.7719 3.48187C17.1375 2.67703 17.4328 1.80281 17.5359 1.17188H9.46406ZM21.4219 5.39062V12.6094H22.8281V5.39062H21.4219ZM20.5781 5.97188L16.1813 6.15469C16.1391 6.20625 16.0922 6.25781 16.05 6.3C15.2484 7.09687 14.3906 7.54688 13.5 7.54688C12.6375 7.54688 11.8031 7.12031 11.0203 6.36563L10.1719 6.40313V11.5969L20.5781 12.0281V9.42188H16.5V8.57812H20.5781V5.97188ZM8.67188 7.92188V10.8281H9.32812V7.92188H8.67188ZM6.22969 8.67188L5.75625 9.39844L6.22031 10.0781H7.82812V8.67188H6.22969ZM6.70312 10.9219V18.8063L7.54688 19.0172V10.9219H6.70312ZM10.9219 12.4688V20.2547C10.9219 20.4844 11.0531 20.7703 11.2687 20.9813C11.4797 21.1969 11.7656 21.3281 12 21.3281H16.0781V18.4219H14.6719V19.9219H12.3281V12.5297L10.9219 12.4688ZM14.6719 12.6281V13.8656H16.0781V12.6844L14.6719 12.6281ZM14.6719 16.9219V17.5781H16.0781V16.9219H14.6719ZM4.875 19.2188C4.12453 19.2188 3.05016 19.2281 2.19234 19.3969C1.755 19.4859 1.38141 19.6172 1.15406 19.7766C0.927188 19.9359 0.84375 20.0625 0.84375 20.2969C0.84375 20.5312 0.927188 20.6578 1.15406 20.8172C1.38141 20.9766 1.755 21.1078 2.19234 21.1969C3.05016 21.3656 4.12453 21.375 4.875 21.375L7.5 20.7188V19.875L4.875 19.2188ZM14.8922 22.1719L14.2359 22.8281H16.7016L16.0453 22.1719H14.8922Z" fill="#033126"/>
</svg>
