<svg width="595" height="595" viewBox="0 0 595 595" fill="none" xmlns="http://www.w3.org/2000/svg">
<path d="M488.988 500.067L489.312 517.064L492.745 513.498L492.707 511.498L490.707 511.536L490.612 506.537L492.611 506.499L492.564 503.999L488.988 500.067Z" fill="white"/>
<path d="M481.989 500.2L486.489 500.114L486.831 518.111L482.332 518.197L481.989 500.2Z" fill="white"/>
<path d="M480.237 513.236L480.076 504.737L471.077 504.909L475.191 510.831L473.691 510.86L467.578 504.975L461.579 505.09L466.692 510.993L463.693 511.05L458.079 505.156L452.081 505.27L456.694 511.184L454.194 511.231L448.081 505.347L442.582 505.451L446.696 511.374L444.696 511.412L438.583 505.528L435.084 505.594L424.171 510.303L435.246 514.093L480.237 513.236Z" fill="white"/>
<path d="M488.988 500.067L489.312 517.064L492.745 513.498L492.707 511.498L490.707 511.536L490.612 506.537L492.611 506.499L492.564 503.999L488.988 500.067Z" stroke="white"/>
<path d="M481.989 500.2L486.489 500.114L486.831 518.111L482.332 518.197L481.989 500.2Z" stroke="white"/>
<path d="M480.237 513.236L480.076 504.737L471.077 504.909L475.191 510.831L473.691 510.86L467.578 504.975L461.579 505.09L466.692 510.993L463.693 511.05L458.079 505.156L452.081 505.27L456.694 511.184L454.194 511.231L448.081 505.347L442.582 505.451L446.696 511.374L444.696 511.412L438.583 505.528L435.084 505.594L424.171 510.303L435.246 514.093L480.237 513.236Z" stroke="white"/>
<path fill-rule="evenodd" clip-rule="evenodd" d="M286.042 398.55L296.781 398.527L300.705 392.433L296.755 386.356L286.016 386.379C288.526 382.294 290.489 380.732 294.949 379.201L301.393 379.186C305.46 380.569 307.187 381.653 308.564 384.54L364.048 384.419C366.41 381.059 368.203 380.098 371.912 379.391L379.43 379.374C383.745 381.281 385.488 382.717 386.962 386.159L376.939 386.181L372.656 391.918L376.966 398.71L386.989 398.688C385.196 401.965 383.768 403.574 379.486 405.506L371.969 405.522C367.849 404.387 366.198 403.145 364.082 400.17L308.598 400.291C307.3 403.388 305.458 404.487 301.451 406.034L295.008 406.048C289.863 403.645 287.905 401.998 286.042 398.55ZM356.199 396.249L318.97 396.331L315.742 393.474L315.74 392.4L315.738 391.326L318.954 388.813L356.182 388.732L359.769 391.946L359.771 393.02L356.199 396.249Z" fill="white"/>
<path d="M244 85H123V109H132V102.5H134.5V109H140.5V102.5H143.5V109H149.5V102.5H152V109H158.5V102.5H161V109H166.5V102.5H169.5V109H175.5V102.5H178.5V109H184V102.5H187.5V109H192.5V102.5H195.5V109H201.5V102.5H204.5V109H210V102.5H213V109H219V102.5H221.5V109H227.5V102.5H230.5V109H236V102.5H239.5V109H245.5V102.5H248V109H254V102.5H256V109H262V102.5H265V109H271V102.5H274V109H279.5V102.5H282.5V109H288V102.5H291V109H297V102.5H299.5V109H306V102.5H309V109H314.5V102.5H317V109H323.5V102.5H326V109H332V102.5H334.5V109H340.5V102.5H343V109H349V102.5H352V109H357.5V102.5H360.5V109H366V102.5H369V109H374.5V102.5H378V109H384V102.5H387V109H392.5V102.5H395.5V109H401.5V102.5H404V109H410V102.5H412.5V109H418.5V102.5H421.5V109H427V102.5H430V109H436V102.5H439V109H445.5V102.5H448V109H454V102.5H456.5V109H467V85H344.5C345.58 93.0921 343.947 95.9742 337.5 98.5H251.5C246.953 97.0645 245.687 93.2159 244 85Z" fill="white"/>
<path fill-rule="evenodd" clip-rule="evenodd" d="M254.5 82H334.5C335.937 83.2613 337.049 84.4179 337.832 85.5C339.639 89.1255 338.779 91.9119 334.5 95H254.5C249.629 90.2905 249.108 87.4833 254.5 82ZM289 88L295 84.5L300.5 88L295 91.5L289 88Z" fill="white"/>
<path d="M294 463.179L294 469.821L312.985 474.25L324.152 469.821L396.741 469.821L396.741 463.179L324.152 463.179L312.985 458.75L294 463.179Z" fill="white"/>
<path fill-rule="evenodd" clip-rule="evenodd" d="M401.208 458.75L401.208 474.25L412.376 482L502.832 482L514 472.036L514 458.75L502.832 451L412.376 451L401.208 458.75ZM419.076 463.179L419.076 456.536L458.162 456.536L497.249 456.536L497.249 463.179L419.076 463.179ZM419.076 469.821L419.076 476.464L497.249 476.464L497.249 469.821L419.076 469.821Z" fill="white"/>
<path d="M294 463.179L294 469.821L312.985 474.25L324.152 469.821L396.741 469.821L396.741 463.179L324.152 463.179L312.985 458.75L294 463.179Z" stroke="white"/>
<path fill-rule="evenodd" clip-rule="evenodd" d="M401.208 458.75L401.208 474.25L412.376 482L502.832 482L514 472.036L514 458.75L502.832 451L412.376 451L401.208 458.75ZM419.076 463.179L419.076 456.536L458.162 456.536L497.249 456.536L497.249 463.179L419.076 463.179ZM419.076 469.821L419.076 476.464L497.249 476.464L497.249 469.821L419.076 469.821Z" stroke="white"/>
<path d="M542 146H443L492.5 115L542 146Z" fill="white"/>
<path fill-rule="evenodd" clip-rule="evenodd" d="M536 149.5H449.5V207H502V176.5C510.167 176.667 526.5 176.9 526.5 176.5V207H536V149.5ZM458.5 161.5H468.5V171H458.5V161.5ZM471 171V161.5H481V171H471ZM471 175H481V185H471V175ZM468.5 175H458.5V185H468.5V175Z" fill="white"/>
<path d="M276.5 285.466V225.966C246.063 239.131 238.145 252.985 235 285.466H276.5Z" fill="white"/>
<path d="M314 285.466V225.966C341.661 240.02 350.539 253.213 355.5 285.466H314Z" fill="white"/>
<path fill-rule="evenodd" clip-rule="evenodd" d="M282.5 138.466V172.466C282.5 172.866 286.167 172.632 288 172.466V130.466C294.13 128.512 297.63 128.51 304 130.466V172.466H308.5V138.466C326.731 147.626 331.333 155.56 334 172.466H341V182.466H334V200.466C326.382 217.745 319.272 223.172 304 228.966C297.749 230.568 294.251 230.657 288 228.966C270.66 223.532 264.071 217.205 257.5 200.466V182.466H250.5V172.466H257.5C258.313 153.388 264.435 146.364 282.5 138.466ZM326.5 185.466H264.5V200.466C271.001 213.165 276.051 217.925 288 221.466C294.253 222.8 297.748 222.754 304 221.466C315.939 215.765 321.254 210.963 326.5 197.466V185.466Z" fill="white"/>
<path d="M68 370.064H30L34 394.957H64L68 370.064Z" fill="white"/>
<path d="M57.5 398.277H41L39.913 404.915H46.5217V424H51.4783V404.915H58.913L57.5 398.277Z" fill="white"/>
<path d="M39.913 346C37.9784 344.026 36.8913 343.862 34.9565 346V365.915H39.913V346Z" fill="white"/>
<path d="M62.2174 346C60.2817 344.429 59.1964 344.263 57.2609 346V365.915H62.2174V346Z" fill="white"/>
<path d="M68 370.064H30L34 394.957H64L68 370.064Z" stroke="white"/>
<path d="M57.5 398.277H41L39.913 404.915H46.5217V424H51.4783V404.915H58.913L57.5 398.277Z" stroke="white"/>
<path d="M39.913 346C37.9784 344.026 36.8913 343.862 34.9565 346V365.915H39.913V346Z" stroke="white"/>
<path d="M62.2174 346C60.2817 344.429 59.1964 344.263 57.2609 346V365.915H62.2174V346Z" stroke="white"/>
<path d="M72 164H43V173.635H72V164Z" fill="white"/>
<path d="M62.3333 176.6H52.6667V224.035L54.8974 255.906L57.8718 290L60.8462 255.906L62.3333 224.035V176.6Z" fill="white"/>
<path d="M72 164H43V173.635H72V164Z" stroke="white"/>
<path d="M62.3333 176.6H52.6667V224.035L54.8974 255.906L57.8718 290L60.8462 255.906L62.3333 224.035V176.6Z" stroke="white"/>
<path d="M424.997 566.168L425.151 546.669L418.651 546.618L418.498 566.117L424.997 566.168Z" fill="white"/>
<path d="M416.549 559.602L416.6 553.102L384.601 552.85L363.09 554.181L340.075 556L363.058 558.181L384.55 559.35L416.549 559.602Z" fill="white"/>
<path d="M424.997 566.168L425.151 546.669L418.651 546.618L418.498 566.117L424.997 566.168Z" stroke="white"/>
<path d="M416.549 559.602L416.6 553.102L384.601 552.85L363.09 554.181L340.075 556L363.058 558.181L384.55 559.35L416.549 559.602Z" stroke="white"/>
<path d="M269.031 73.9386L268.946 59.6372L266.019 62.599L266.029 64.2815L267.712 64.2716L267.737 68.4779L266.054 68.4878L266.067 70.591L269.031 73.9386Z" fill="white"/>
<path d="M274.991 74.4314L271.206 74.4538L271.116 59.3111L274.902 59.2887L274.991 74.4314Z" fill="white"/>
<path d="M276.609 63.4851L276.651 70.6358L284.223 70.591L280.828 65.5633L282.09 65.5559L287.167 70.5736L292.215 70.5437L287.979 65.521L290.502 65.5061L295.159 70.5263L300.207 70.4964L296.391 65.4712L298.494 65.4588L303.572 70.4765L308.199 70.4491L304.804 65.4215L306.486 65.4115L311.564 70.4292L314.508 70.4118L323.74 66.5714L314.466 63.2611L276.609 63.4851Z" fill="white"/>
<path d="M269.031 73.9386L268.946 59.6372L266.019 62.599L266.029 64.2815L267.712 64.2716L267.737 68.4779L266.054 68.4878L266.067 70.591L269.031 73.9386Z" stroke="white"/>
<path d="M274.991 74.4314L271.206 74.4538L271.116 59.3111L274.902 59.2887L274.991 74.4314Z" stroke="white"/>
<path d="M276.609 63.4851L276.651 70.6358L284.223 70.591L280.828 65.5633L282.09 65.5559L287.167 70.5736L292.215 70.5437L287.979 65.521L290.502 65.5061L295.159 70.5263L300.207 70.4964L296.391 65.4712L298.494 65.4588L303.572 70.4765L308.199 70.4491L304.804 65.4215L306.486 65.4115L311.564 70.4292L314.508 70.4118L323.74 66.5714L314.466 63.2611L276.609 63.4851Z" stroke="white"/>
<path d="M193.082 148.5H182.582V217.5H193.082V148.5Z" fill="white"/>
<path d="M196.082 229H180.082C179.246 225.467 179.573 223.752 182.582 221.5H193.082C196.372 223.887 196.52 225.659 196.082 229Z" fill="white"/>
<path d="M196.082 233H180.082V285.5H196.082V233Z" fill="white"/>
<path d="M180.082 289.5L178.082 293.5C179.628 297.402 180.344 297.793 181.582 298H194.082C196.044 296.732 196.902 295.823 197.582 293.5L196.082 289.5H180.082Z" fill="white"/>
<path d="M193.082 145H182.582C176.933 136.595 171.101 136.795 155.082 147.5C154.356 136.615 158.324 131.759 172.082 125H193.082C191.582 125 195.082 129 195.082 129L199.582 131H203.582V128C206.415 128.167 212.082 128.4 212.082 128V145H203.582V141.5L202.082 140H196.582L193.082 145Z" fill="white"/>
<path d="M193.082 148.5H182.582V217.5H193.082V148.5Z" stroke="white"/>
<path d="M196.082 229H180.082C179.246 225.467 179.573 223.752 182.582 221.5H193.082C196.372 223.887 196.52 225.659 196.082 229Z" stroke="white"/>
<path d="M196.082 233H180.082V285.5H196.082V233Z" stroke="white"/>
<path d="M180.082 289.5L178.082 293.5C179.628 297.402 180.344 297.793 181.582 298H194.082C196.044 296.732 196.902 295.823 197.582 293.5L196.082 289.5H180.082Z" stroke="white"/>
<path d="M193.082 145H182.582C176.933 136.595 171.101 136.795 155.082 147.5C154.356 136.615 158.324 131.759 172.082 125H193.082C191.582 125 195.082 129 195.082 129L199.582 131H203.582V128C206.415 128.167 212.082 128.4 212.082 128V145H203.582V141.5L202.082 140H196.582L193.082 145Z" stroke="white"/>
<path d="M76 409.5H93L89.5 406H87.5V408H82.5V406H80L76 409.5Z" fill="white"/>
<path d="M76 416.5V412H94V416.5H76Z" fill="white"/>
<path d="M89 418.5H80.5V427.5L86.5 423.5V425L80.5 431V437L86.5 432V435L80.5 440.5V446.5L86.5 442V444.5L80.5 450.5V456L86.5 452V454L80.5 460V463.5L85 474.5L89 463.5V418.5Z" fill="white"/>
<path d="M76 409.5H93L89.5 406H87.5V408H82.5V406H80L76 409.5Z" stroke="white"/>
<path d="M76 416.5V412H94V416.5H76Z" stroke="white"/>
<path d="M89 418.5H80.5V427.5L86.5 423.5V425L80.5 431V437L86.5 432V435L80.5 440.5V446.5L86.5 442V444.5L80.5 450.5V456L86.5 452V454L80.5 460V463.5L85 474.5L89 463.5V418.5Z" stroke="white"/>
<path d="M364.459 418.778H292V433H297.39V429.148H298.887V433H302.48V429.148H304.276V433H307.869V429.148H309.366V433H313.259V429.148H314.756V433H318.049V429.148H319.846V433H323.439V429.148H325.235V433H328.529V429.148H330.625V433H333.619V429.148H335.416V433H339.009V429.148H340.805V433H344.099V429.148H345.895V433H349.488V429.148H350.985V433H354.578V429.148H356.375V433H359.669V429.148H361.765V433H365.358V429.148H366.855V433H370.448V429.148H371.645V433H375.238V429.148H377.035V433H380.628V429.148H382.424V433H385.718V429.148H387.515V433H390.808V429.148H392.605V433H396.198V429.148H397.695V433H401.587V429.148H403.384V433H406.677V429.148H408.174V433H412.067V429.148H413.564V433H417.157V429.148H418.654V433H422.247V429.148H423.744V433H427.337V429.148H429.134V433H432.427V429.148H434.224V433H437.517V429.148H439.314V433H442.608V429.148H444.703V433H448.297V429.148H450.093V433H453.387V429.148H455.183V433H458.776V429.148H460.273V433H463.866V429.148H465.363V433H468.956V429.148H470.753V433H474.047V429.148H475.843V433H479.436V429.148H481.233V433H485.125V429.148H486.622V433H490.215V429.148H491.712V433H498V418.778H424.642C425.289 423.573 424.311 425.281 420.451 426.778H368.951C366.228 425.927 365.47 423.646 364.459 418.778Z" fill="white"/>
<path fill-rule="evenodd" clip-rule="evenodd" d="M370.747 417H418.654C419.515 417.747 420.181 418.433 420.649 419.074C421.732 421.223 421.216 422.874 418.654 424.704H370.747C367.83 421.913 367.518 420.249 370.747 417ZM391.407 420.556L395 418.481L398.294 420.556L395 422.63L391.407 420.556Z" fill="white"/>
<path fill-rule="evenodd" clip-rule="evenodd" d="M365.032 29.4999L350.032 29.547L344.559 38.0642L350.086 46.5469L365.086 46.4999C361.585 52.2092 358.845 54.3939 352.617 56.539L343.617 56.5673C337.934 54.6419 335.521 53.1295 333.594 49.0987L256.094 49.3419C252.799 54.0392 250.296 55.3839 245.116 56.3763L234.616 56.4093C228.585 53.7517 226.15 51.7491 224.086 46.9423L238.086 46.8983L244.061 38.8796L238.031 29.3984L224.031 29.4424C226.531 24.8627 228.524 22.6136 234.501 19.9095L245.001 19.8765C250.757 21.4567 253.065 23.1884 256.025 27.342L333.525 27.0988C335.334 22.7714 337.904 21.2336 343.499 19.0675L352.499 19.0392C359.689 22.3886 362.426 24.6865 365.032 29.4999ZM267.042 32.8074L319.042 32.6443L323.554 36.6301L323.559 38.1301L323.564 39.6301L319.075 43.1442L267.075 43.3074L262.061 38.8231L262.056 37.3231L267.042 32.8074Z" fill="white"/>
<path fill-rule="evenodd" clip-rule="evenodd" d="M395.76 125V141.809L405.28 147.972L414.8 141.809V125C421.182 128.943 423.619 132.021 426 139.007V149.092C423.824 155.453 422.121 158.153 417.6 160.298V247.142C422.849 250.851 424.347 253.661 425.44 259.468V271.234C422.442 277.983 420.191 280.705 414.8 283V267.312L405.84 260.589L395.2 267.312V283C390.08 280.183 387.568 277.942 384.56 271.234V259.468C386.35 253.024 388.298 250.444 392.96 247.142V160.298C388.12 158.255 386.406 155.369 384 149.092V139.007C387.777 130.962 390.36 127.903 395.76 125ZM399.12 234.816V176.546L403.6 171.504H405.28H406.96L410.88 176.546V234.816L405.84 240.418H404.16L399.12 234.816Z" fill="white"/>
<path d="M512.109 284H437.109C434.215 286.606 434.381 287.905 437.109 290H512.109C514.18 288.136 514.703 286.943 512.109 284Z" fill="white"/>
<path fill-rule="evenodd" clip-rule="evenodd" d="M437.609 292.5H449.609V308L447.109 328C447.038 331.089 447.073 332.665 447.609 334.5C448.212 336.254 448.761 336.902 450.109 337.5H452.109C453.409 336.391 453.772 335.726 454.109 334.5C454.704 331.968 454.736 330.544 454.609 328L452.609 308V292.5H511.109V374H437.109V292.5H437.609ZM460.109 357.5V306H505.109V357.5H460.109Z" fill="white"/>
<path fill-rule="evenodd" clip-rule="evenodd" d="M438.609 281.5H442.109H507.609H510.609C506.793 259.582 500.079 251.843 480.109 246C475.603 245.349 473.399 245.333 470.109 246C450.19 251.77 442.904 259.129 438.609 281.5ZM471.109 249C451.096 253.167 445.743 261.754 441.609 279.5H508.109C503.801 263.724 501.16 255.004 479.109 249C475.983 248.494 474.235 248.456 471.109 249Z" fill="white"/>
<path d="M512.109 284H437.109C434.215 286.606 434.381 287.905 437.109 290H512.109C514.18 288.136 514.703 286.943 512.109 284Z" stroke="white"/>
<path fill-rule="evenodd" clip-rule="evenodd" d="M437.609 292.5H449.609V308L447.109 328C447.038 331.089 447.073 332.665 447.609 334.5C448.212 336.254 448.761 336.902 450.109 337.5H452.109C453.409 336.391 453.772 335.726 454.109 334.5C454.704 331.968 454.736 330.544 454.609 328L452.609 308V292.5H511.109V374H437.109V292.5H437.609ZM460.109 357.5V306H505.109V357.5H460.109Z" stroke="white"/>
<path fill-rule="evenodd" clip-rule="evenodd" d="M438.609 281.5H442.109H507.609H510.609C506.793 259.582 500.079 251.843 480.109 246C475.603 245.349 473.399 245.333 470.109 246C450.19 251.77 442.904 259.129 438.609 281.5ZM471.109 249C451.096 253.167 445.743 261.754 441.609 279.5H508.109C503.801 263.724 501.16 255.004 479.109 249C475.983 248.494 474.235 248.456 471.109 249Z" stroke="white"/>
<path d="M337 79.8828L337 74L380.385 74L380.385 75.103L338.471 75.103L338.471 79.8828L337 79.8828Z" fill="white"/>
<path d="M250 79L250 74L205 74L205 74.9375L248.475 74.9375L248.475 79L250 79Z" fill="white"/>
<path fill-rule="evenodd" clip-rule="evenodd" d="M383 41.335L383 75.8962L418.297 75.8962C421.244 74.5024 422.199 72.8603 423.076 68.9104L423.076 53.4682C420.452 44.0321 416.704 40.422 406.531 36.5553C400.357 35.8011 396.895 35.8288 390.721 36.5553C386.395 37.2505 384.827 38.4062 383 41.335ZM411.494 57.6017C411.599 52.0177 406.784 47.7238 401.199 47.6746C395.563 47.6249 390.615 51.9659 390.721 57.6017C390.825 63.1398 395.66 67.2099 401.199 67.1612C406.685 67.113 411.391 63.0871 411.494 57.6017ZM401.199 52.0866C404.455 52.0866 407.345 54.3481 407.45 57.6017C407.557 60.952 404.551 63.4845 401.199 63.4845C397.847 63.4845 394.841 60.952 394.949 57.6017C395.053 54.3481 397.944 52.0866 401.199 52.0866Z" fill="white"/>
<path fill-rule="evenodd" clip-rule="evenodd" d="M202 41.3489L202 76L166.771 76C163.829 74.6026 162.875 72.9562 162 68.9961L162 53.5137C164.62 44.053 168.36 40.4335 178.514 36.5567C184.676 35.8006 188.131 35.8284 194.294 36.5567C198.611 37.2538 200.177 38.4125 202 41.3489ZM173.56 57.6579C173.455 52.0593 178.261 47.7543 183.835 47.705C189.461 47.6551 194.399 52.0075 194.294 57.6579C194.19 63.2104 189.364 67.2911 183.835 67.2423C178.36 67.1939 173.663 63.1576 173.56 57.6579ZM183.835 52.1285C180.586 52.1285 177.701 54.3959 177.597 57.6579C177.489 61.0169 180.49 63.556 183.835 63.556C187.181 63.556 190.181 61.0169 190.074 57.6579C189.97 54.3959 187.084 52.1285 183.835 52.1285Z" fill="white"/>
<path d="M541 229.5H536.5L523 289.5H527.5L531 273H547.5L544.5 289.5H548.5L552 273L550.5 265L548.5 268.5H532L534.5 257.5H548.5L547.5 253H535.5L538 242.5H544.5L543.5 237.5H539L541 229.5Z" fill="white"/>
<path d="M568.5 227.5H535.5C535.167 227 534.5 225.2 534.5 222H569.5V226L568.5 227.5Z" fill="white"/>
<path d="M535.5 220L536.5 218H568.5L569.5 220H535.5Z" fill="white"/>
<path fill-rule="evenodd" clip-rule="evenodd" d="M547.5 229.5H543.5H543L558 289.5H562.5L558 273H575L579.5 289.5H583.5L569.5 229.5H565L566.5 237.5H549.5L547.5 229.5ZM550.5 242.5L553 252.5H569.5L567.5 242.5H550.5ZM571 257.5H554.5L557 268.5H574L571 257.5Z" fill="white"/>
<path d="M541 229.5H536.5L523 289.5H527.5L531 273H547.5L544.5 289.5H548.5L552 273L550.5 265L548.5 268.5H532L534.5 257.5H548.5L547.5 253H535.5L538 242.5H544.5L543.5 237.5H539L541 229.5Z" stroke="white"/>
<path d="M568.5 227.5H535.5C535.167 227 534.5 225.2 534.5 222H569.5V226L568.5 227.5Z" stroke="white"/>
<path d="M535.5 220L536.5 218H568.5L569.5 220H535.5Z" stroke="white"/>
<path fill-rule="evenodd" clip-rule="evenodd" d="M547.5 229.5H543.5H543L558 289.5H562.5L558 273H575L579.5 289.5H583.5L569.5 229.5H565L566.5 237.5H549.5L547.5 229.5ZM550.5 242.5L553 252.5H569.5L567.5 242.5H550.5ZM571 257.5H554.5L557 268.5H574L571 257.5Z" stroke="white"/>
<path d="M25.5 219H22.5L20.5 227.5L22.5 232.5V265H25.5V232.5L27.5 227.5L25.5 219Z" fill="white"/>
<path fill-rule="evenodd" clip-rule="evenodd" d="M27.5 267H20.5L17 272V312.5L21.5 317.5H27.5L31 312.5V272L27.5 267ZM25.5 275H28.5V310H25.5V275ZM22.5 275H19.5V310H22.5V275Z" fill="white"/>
<path d="M25.5 219H22.5L20.5 227.5L22.5 232.5V265H25.5V232.5L27.5 227.5L25.5 219Z" stroke="white"/>
<path fill-rule="evenodd" clip-rule="evenodd" d="M27.5 267H20.5L17 272V312.5L21.5 317.5H27.5L31 312.5V272L27.5 267ZM25.5 275H28.5V310H25.5V275ZM22.5 275H19.5V310H22.5V275Z" stroke="white"/>
<path d="M524.651 395.546H530.538V429.448H524.651V395.546Z" fill="white"/>
<path d="M522.97 435.098H531.939C532.408 433.362 532.224 432.52 530.538 431.413H524.651C522.807 432.586 522.724 433.457 522.97 435.098Z" fill="white"/>
<path d="M522.97 437.064H531.939V462.858H522.97V437.064Z" fill="white"/>
<path d="M531.939 464.824L533.06 466.789C532.194 468.706 531.792 468.898 531.098 469H524.091C522.991 468.377 522.51 467.93 522.129 466.789L522.97 464.824H531.939Z" fill="white"/>
<path d="M524.651 393.827H530.538C533.704 389.697 536.974 389.795 545.954 395.055C546.361 389.707 544.137 387.321 536.424 384H524.651C525.492 384 523.53 385.965 523.53 385.965L521.007 386.948H518.765V385.474C517.177 385.556 514 385.671 514 385.474V393.827H518.765V392.107L519.606 391.37H522.689L524.651 393.827Z" fill="white"/>
<path d="M524.651 395.546H530.538V429.448H524.651V395.546Z" stroke="white"/>
<path d="M522.97 435.098H531.939C532.408 433.362 532.224 432.52 530.538 431.413H524.651C522.807 432.586 522.724 433.457 522.97 435.098Z" stroke="white"/>
<path d="M522.97 437.064H531.939V462.858H522.97V437.064Z" stroke="white"/>
<path d="M531.939 464.824L533.06 466.789C532.194 468.706 531.792 468.898 531.098 469H524.091C522.991 468.377 522.51 467.93 522.129 466.789L522.97 464.824H531.939Z" stroke="white"/>
<path d="M524.651 393.827H530.538C533.704 389.697 536.974 389.795 545.954 395.055C546.361 389.707 544.137 387.321 536.424 384H524.651C525.492 384 523.53 385.965 523.53 385.965L521.007 386.948H518.765V385.474C517.177 385.556 514 385.671 514 385.474V393.827H518.765V392.107L519.606 391.37H522.689L524.651 393.827Z" stroke="white"/>
<path d="M575 314.346L540.127 302C539.582 325.555 540.272 338.097 552.914 352.853H561.923C570.542 342.516 573.519 334.237 575 314.346Z" fill="white"/>
<path d="M558.726 354.323H555.529V356.968L560.469 361.378V368.432H563.957V359.908L558.726 355.793V354.323Z" fill="white"/>
<path d="M565.991 369.902H558.726V375.487H565.991V369.902Z" fill="white"/>
<path fill-rule="evenodd" clip-rule="evenodd" d="M556.692 376.957H568.607L572.385 395.769V399.885L566.863 404H558.726L552.914 399.885V395.769L556.692 376.957ZM563.957 391.36H561.341C560.093 392.853 559.393 393.689 558.145 395.182V397.827C558.145 397.827 560.093 399.619 561.341 400.767H563.957L566.863 397.827V395.182L563.957 391.36Z" fill="white"/>
<path d="M575 314.346L540.127 302C539.582 325.555 540.272 338.097 552.914 352.853H561.923C570.542 342.516 573.519 334.237 575 314.346Z" stroke="white"/>
<path d="M558.726 354.323H555.529V356.968L560.469 361.378V368.432H563.957V359.908L558.726 355.793V354.323Z" stroke="white"/>
<path d="M565.991 369.902H558.726V375.487H565.991V369.902Z" stroke="white"/>
<path fill-rule="evenodd" clip-rule="evenodd" d="M556.692 376.957H568.607L572.385 395.769V399.885L566.863 404H558.726L552.914 399.885V395.769L556.692 376.957ZM563.957 391.36H561.341C560.093 392.853 559.393 393.689 558.145 395.182V397.827C558.145 397.827 560.093 399.619 561.341 400.767H563.957L566.863 397.827V395.182L563.957 391.36Z" stroke="white"/>
<path d="M135 412.294L117.065 406C116.785 418.008 117.14 424.403 123.641 431.925H128.274C132.707 426.655 134.238 422.434 135 412.294Z" fill="white"/>
<path d="M126.63 432.674H124.986V434.023L127.527 436.271V439.867H129.321V435.522L126.63 433.424V432.674Z" fill="white"/>
<path d="M130.367 440.617H126.63V443.464H130.367V440.617Z" fill="white"/>
<path fill-rule="evenodd" clip-rule="evenodd" d="M125.584 444.213H131.712L133.655 453.804V455.902L130.815 458H126.63L123.641 455.902V453.804L125.584 444.213ZM129.321 451.556H127.976L126.332 453.504V454.853L127.976 456.352H129.321L130.815 454.853V453.504L129.321 451.556Z" fill="white"/>
<path d="M135 412.294L117.065 406C116.785 418.008 117.14 424.403 123.641 431.925H128.274C132.707 426.655 134.238 422.434 135 412.294Z" stroke="white"/>
<path d="M126.63 432.674H124.986V434.023L127.527 436.271V439.867H129.321V435.522L126.63 433.424V432.674Z" stroke="white"/>
<path d="M130.367 440.617H126.63V443.464H130.367V440.617Z" stroke="white"/>
<path fill-rule="evenodd" clip-rule="evenodd" d="M125.584 444.213H131.712L133.655 453.804V455.902L130.815 458H126.63L123.641 455.902V453.804L125.584 444.213ZM129.321 451.556H127.976L126.332 453.504V454.853L127.976 456.352H129.321L130.815 454.853V453.504L129.321 451.556Z" stroke="white"/>
<path d="M165.376 409.777H157.376V468.777H158.876V411.777H165.376V409.777Z" fill="white"/>
<path fill-rule="evenodd" clip-rule="evenodd" d="M112.255 472.027H159.255V520.027C157.36 524.035 155.127 525.335 149.755 526.527H128.755C115.923 522.958 111.014 517.861 105.755 504.027C104.73 495.631 104.767 490.924 105.755 482.527C106.701 476.645 108.272 474.512 112.255 472.027ZM134.376 510.777C126.783 510.92 120.943 504.371 120.876 496.777C120.809 489.111 126.712 482.383 134.376 482.527C141.908 482.669 147.443 489.244 147.376 496.777C147.311 504.237 141.836 510.636 134.376 510.777ZM126.876 496.777C126.876 501.204 129.952 505.134 134.376 505.277C138.932 505.423 142.376 501.335 142.376 496.777C142.376 492.218 138.932 488.13 134.376 488.277C129.952 488.419 126.876 492.35 126.876 496.777Z" fill="white"/>
<path d="M136.5 124H78L82 168.5H106.5H131L136.5 124Z" fill="white"/>
<path d="M131 173H82V188H131V173Z" fill="white"/>
<path fill-rule="evenodd" clip-rule="evenodd" d="M82 192.5H131V196.5C118.73 204.341 114.51 208.103 112.5 213.5L115.5 267V280C114.413 285.598 112.563 287.706 107.5 290C102.626 289.057 100.448 287.116 98 280L99 267L101.5 213.5C99.574 207.132 93.4114 203.32 82 196.5V192.5ZM104 282.5C104.068 280.751 104.431 280.047 106.5 280C108.447 279.921 108.799 280.681 109 282.5L106.5 285L104 282.5Z" fill="white"/>
<path d="M136.5 124H78L82 168.5H106.5H131L136.5 124Z" stroke="white"/>
<path d="M131 173H82V188H131V173Z" stroke="white"/>
<path fill-rule="evenodd" clip-rule="evenodd" d="M82 192.5H131V196.5C118.73 204.341 114.51 208.103 112.5 213.5L115.5 267V280C114.413 285.598 112.563 287.706 107.5 290C102.626 289.057 100.448 287.116 98 280L99 267L101.5 213.5C99.574 207.132 93.4114 203.32 82 196.5V192.5ZM104 282.5C104.068 280.751 104.431 280.047 106.5 280C108.447 279.921 108.799 280.681 109 282.5L106.5 285L104 282.5Z" stroke="white"/>
<path d="M137 232.5H154L150.5 229H148.5V231H143.5V229H141L137 232.5Z" fill="white"/>
<path d="M137 239.5V235H155V239.5H137Z" fill="white"/>
<path d="M150 241.5H141.5V250.5L147.5 246.5V248L141.5 254V260L147.5 255V258L141.5 263.5V269.5L147.5 265V267.5L141.5 273.5V279L147.5 275V277L141.5 283V286.5L146 297.5L150 286.5V241.5Z" fill="white"/>
<path d="M137 232.5H154L150.5 229H148.5V231H143.5V229H141L137 232.5Z" stroke="white"/>
<path d="M137 239.5V235H155V239.5H137Z" stroke="white"/>
<path d="M150 241.5H141.5V250.5L147.5 246.5V248L141.5 254V260L147.5 255V258L141.5 263.5V269.5L147.5 265V267.5L141.5 273.5V279L147.5 275V277L141.5 283V286.5L146 297.5L150 286.5V241.5Z" stroke="white"/>
<path d="M306.651 336.717C305.171 333.278 304.952 331.249 306.651 327.283H150.18C144.344 331.173 144.876 333.22 150.18 336.717H306.651Z" fill="white"/>
<path d="M329.94 312.044C302.556 327.556 305.126 336.117 330.667 351.23L329.94 312.044Z" fill="white"/>
<path d="M334.306 351.23V312.044L416.544 291V293.177H418V298.982H416.544V303.336H418V309.867H416.544V313.496H418V319.301H416.544V323.655H418V329.46H416.544V333.814H418V340.345H416.544V344.699H418V350.504L350.317 342.522V344.699L418 353.407V360.664L350.317 350.504V351.956L418 363.566V373L334.306 351.23Z" fill="white"/>
<path d="M306.651 336.717C305.171 333.278 304.952 331.249 306.651 327.283H150.18C144.344 331.173 144.876 333.22 150.18 336.717H306.651Z" stroke="white"/>
<path d="M329.94 312.044C302.556 327.556 305.126 336.117 330.667 351.23L329.94 312.044Z" stroke="white"/>
<path d="M334.306 351.23V312.044L416.544 291V293.177H418V298.982H416.544V303.336H418V309.867H416.544V313.496H418V319.301H416.544V323.655H418V329.46H416.544V333.814H418V340.345H416.544V344.699H418V350.504L350.317 342.522V344.699L418 353.407V360.664L350.317 350.504V351.956L418 363.566V373L334.306 351.23Z" stroke="white"/>
<path d="M209.24 372.944H201.43L178 477H185.81L191.884 448.385H220.521L215.314 477H222.256L228.331 448.385L225.727 434.51L222.256 440.58H193.62L197.959 421.503H222.256L220.521 413.699H199.694L204.033 395.49H215.314L213.579 386.818H205.769L209.24 372.944Z" fill="white"/>
<path d="M256.967 369.476H199.694C199.116 368.608 197.959 365.487 197.959 359.937H258.702V366.874L256.967 369.476Z" fill="white"/>
<path d="M199.694 356.469L201.43 353H256.967L258.702 356.469H199.694Z" fill="white"/>
<path fill-rule="evenodd" clip-rule="evenodd" d="M220.521 372.944H213.579H212.711L238.744 477H246.554L238.744 448.385H268.248L276.058 477H283L258.702 372.944H250.893L253.496 386.818H223.992L220.521 372.944ZM225.727 395.49L230.066 412.832H258.702L255.231 395.49H225.727ZM261.306 421.503H232.669L237.008 440.58H266.512L261.306 421.503Z" fill="white"/>
<path d="M209.24 372.944H201.43L178 477H185.81L191.884 448.385H220.521L215.314 477H222.256L228.331 448.385L225.727 434.51L222.256 440.58H193.62L197.959 421.503H222.256L220.521 413.699H199.694L204.033 395.49H215.314L213.579 386.818H205.769L209.24 372.944Z" stroke="white"/>
<path d="M256.967 369.476H199.694C199.116 368.608 197.959 365.487 197.959 359.937H258.702V366.874L256.967 369.476Z" stroke="white"/>
<path d="M199.694 356.469L201.43 353H256.967L258.702 356.469H199.694Z" stroke="white"/>
<path fill-rule="evenodd" clip-rule="evenodd" d="M220.521 372.944H213.579H212.711L238.744 477H246.554L238.744 448.385H268.248L276.058 477H283L258.702 372.944H250.893L253.496 386.818H223.992L220.521 372.944ZM225.727 395.49L230.066 412.832H258.702L255.231 395.49H225.727ZM261.306 421.503H232.669L237.008 440.58H266.512L261.306 421.503Z" stroke="white"/>
<path d="M83.5 293H81V310.5H76V313H80.5V315H76V317H80.5V319H76V321C77.5 321.167 80.5 321.4 80.5 321V323H76V325H80.5V326.5H76V328.5H80.5V330.5H76V333H80.5V335H76V337.5H80.5V339H76V341H80.5V343H76V345.5H80.5V347H76V349.5H80.5V351.5H76V353H80.5V355H76V357.5H80.5V359H76V361.5H80.5V363H76V365.5H80.5V367.5H76V369.5H80.5V371.5H76V373.5H80.5V375.5H76V377.5H80.5V379H76V381.5H80.5V383.5H76V385.5H80.5V387.5H76V389.5H81.5V392.5H79.5V395H86V392.5H83.5V293Z" fill="white"/>
<path d="M86.5 316V310.5H118C127.366 315.329 131.171 318.622 133 326.5V374.5C131.093 383.038 127.217 386.351 116 390H86.5V384.5H116C122.99 382.956 126.036 380.751 128 371.5V326.5C125.845 320.536 123.289 318.182 116 316H86.5Z" fill="white"/>
<path d="M85 257H79C77.198 258.337 76.5838 259.351 76 261.5V267C77.7168 271.401 78.3436 273.804 79 278V288L77.5 291H86.5L85 288V278C85.5421 274.247 86.1946 271.913 88.5 267V261.5C87.6448 258.819 86.939 257.726 85 257Z" fill="white"/>
<path d="M83.5 293H81V310.5H76V313H80.5V315H76V317H80.5V319H76V321C77.5 321.167 80.5 321.4 80.5 321V323H76V325H80.5V326.5H76V328.5H80.5V330.5H76V333H80.5V335H76V337.5H80.5V339H76V341H80.5V343H76V345.5H80.5V347H76V349.5H80.5V351.5H76V353H80.5V355H76V357.5H80.5V359H76V361.5H80.5V363H76V365.5H80.5V367.5H76V369.5H80.5V371.5H76V373.5H80.5V375.5H76V377.5H80.5V379H76V381.5H80.5V383.5H76V385.5H80.5V387.5H76V389.5H81.5V392.5H79.5V395H86V392.5H83.5V293Z" stroke="white"/>
<path d="M86.5 316V310.5H118C127.366 315.329 131.171 318.622 133 326.5V374.5C131.093 383.038 127.217 386.351 116 390H86.5V384.5H116C122.99 382.956 126.036 380.751 128 371.5V326.5C125.845 320.536 123.289 318.182 116 316H86.5Z" stroke="white"/>
<path d="M85 257H79C77.198 258.337 76.5838 259.351 76 261.5V267C77.7168 271.401 78.3436 273.804 79 278V288L77.5 291H86.5L85 288V278C85.5421 274.247 86.1946 271.913 88.5 267V261.5C87.6448 258.819 86.939 257.726 85 257Z" stroke="white"/>
<path d="M267.342 487L257 552.336L263.083 556L269.167 549.894L275.858 553.558L280.117 547.451L287.417 552.336L292.283 545.009L298.975 549.894L305.667 542.566L311.75 547.451L317.833 540.735L324.525 545.009L330 538.292L336.692 542.566L341.558 535.85L348.858 540.735L354.942 534.628L360.417 538.292L366.5 532.186L372.583 535.85L378.667 529.743L384.75 533.407L390.833 527.912V496.77L267.342 487Z" fill="white"/>
<path fill-rule="evenodd" clip-rule="evenodd" d="M257 583.12L265.617 583.12L268.777 578.36L265.617 573.6L257 573.6C259.022 570.409 260.599 569.19 264.181 568L269.351 568C272.612 569.088 273.996 569.939 275.096 572.2L319.617 572.2C321.518 569.575 322.959 568.827 325.936 568.28L331.968 568.28C335.428 569.779 336.823 570.905 338 573.6L329.957 573.6L326.511 578.08L329.957 583.4L338 583.4C336.556 585.96 335.407 587.216 331.968 588.72L325.936 588.72C322.632 587.825 321.31 586.851 319.617 584.52L275.096 584.52C274.049 586.94 272.569 587.797 269.351 589L264.181 589C260.057 587.112 258.488 585.82 257 583.12ZM313.298 581.44L283.426 581.44L280.84 579.2L280.84 578.36L280.84 577.52L283.426 575.56L313.298 575.56L316.17 578.08L316.17 578.92L313.298 581.44Z" fill="white"/>
<path fill-rule="evenodd" clip-rule="evenodd" d="M258.551 487H194.271C190.1 488.08 186.411 493.998 188.761 501.044C193.161 501.389 194.951 501.974 197.332 503.487L194.271 540.124C193.011 540.627 191.805 540.776 190.664 540.917C188.559 541.178 186.677 541.411 185.088 543.788C182.64 547.451 185.088 551.726 185.088 551.726C187.31 554.665 188.25 555.134 189.858 555.936L189.986 556H247.532L249.981 554.168L261 490.053L258.551 487ZM205.903 537.071L209.576 504.708C211.041 501.526 212.367 500.175 215.698 498.602H236.512C239.633 500.685 240.689 502.025 241.41 504.708L236.512 538.292C235.033 541.797 233.731 542.807 231.003 543.788H212.025C208.846 542.207 207.479 540.772 205.903 537.071ZM241.41 540L246 505.5L251 504.708L246 539L241.41 540Z" fill="white"/>
</svg>
