<svg width="187" height="184" viewBox="0 0 187 184" fill="none" xmlns="http://www.w3.org/2000/svg">
<g clip-path="url(#clip0_174_28)">
<path d="M40.25 99.7916H57.75M63.5833 69.1666H34.4167M63.5833 69.1666C65.904 69.1666 68.1296 68.2448 69.7705 66.6038C71.4115 64.9629 72.3333 62.7373 72.3333 60.4166V58.9583H35.875C33.1676 58.9583 30.5711 60.0338 28.6566 61.9483C26.7422 63.8627 25.6667 66.4592 25.6667 69.1666C25.6667 71.8741 26.7422 74.4706 28.6566 76.385C30.5711 78.2995 33.1676 79.375 35.875 79.375H72.3333V77.9166C72.3333 75.596 71.4115 73.3704 69.7705 71.7295C68.1296 70.0885 65.904 69.1666 63.5833 69.1666ZM24.2083 126.042H73.7917C73.7917 114.375 76.5158 103.321 81.7308 93.3254L82.5417 91.7708V91.0416H15.4583V91.7708L16.2692 93.3254C21.4842 103.321 24.2083 114.375 24.2083 126.042Z" stroke="#022C22" stroke-width="4"/>
</g>
<path d="M100.912 87.4525L93.3375 74.3687L112.897 63.1487H115.297C116.347 66.2937 118.027 68.8462 120.337 70.8062C122.65 72.7687 125.537 73.75 129 73.75C132.462 73.75 135.35 72.7687 137.662 70.8062C139.975 68.8462 141.655 66.2937 142.702 63.1487H145.103L164.565 74.4625L157.087 87.4525L147.75 82.3112V108.674L145.234 110.875C145.094 111 144.916 111.12 144.701 111.235C144.484 111.35 144.25 111.446 144 111.524V75.9062L155.719 82.375L159.469 75.8125L145.125 67.4687C143.625 70.5312 141.434 72.9687 138.551 74.7812C135.669 76.5937 132.485 77.5 129 77.5C125.515 77.5 122.331 76.5937 119.449 74.7812C116.566 72.9687 114.375 70.5312 112.875 67.4687L98.4375 75.8125L102.281 82.375L114 75.9062V96.7562C113.36 96.8312 112.727 96.9012 112.102 96.9662C111.477 97.0312 110.86 97.1687 110.25 97.3787V82.315L100.912 87.4525ZM101.655 115.686L99.2325 112.851L105.945 107.14C107.237 106.035 108.71 105.19 110.362 104.605C112.012 104.02 113.694 103.727 115.406 103.727C117.119 103.727 118.785 104.02 120.405 104.605C122.025 105.19 123.481 106.035 124.774 107.14L135.649 116.421C136.591 117.239 137.686 117.842 138.934 118.232C140.184 118.625 141.435 118.821 142.687 118.821C143.957 118.821 145.196 118.629 146.404 118.244C147.614 117.861 148.689 117.254 149.629 116.421L156.345 110.616L158.767 113.541L152.055 119.256C150.763 120.361 149.306 121.19 147.686 121.742C146.066 122.295 144.4 122.571 142.687 122.571C140.975 122.571 139.294 122.296 137.644 121.746C135.994 121.191 134.521 120.361 133.226 119.256L122.351 109.975C121.409 109.157 120.334 108.552 119.126 108.16C117.916 107.767 116.676 107.571 115.406 107.571C114.151 107.571 112.9 107.767 111.652 108.16C110.405 108.552 109.31 109.157 108.367 109.975L101.655 115.686Z" fill="#022C22"/>
<path fill-rule="evenodd" clip-rule="evenodd" d="M93.0109 0C142.72 0 185.953 42.7944 186.505 92.5C187.064 142.755 143.269 184 93.0109 184C42.753 184 -0.553046 142.755 0.00534069 92.5C0.557625 42.7944 43.3022 0 93.0109 0ZM11.0109 92.5C11.0109 47.2127 47.7235 10.5 93.0109 10.5C138.298 10.5 175.011 47.2127 175.011 92.5C175.011 98.506 174.365 104.361 173.139 110C165.122 146.879 132.292 174.5 93.0109 174.5C47.7235 174.5 11.0109 137.787 11.0109 92.5Z" fill="#022C22"/>
<defs>
<clipPath id="clip0_174_28">
<rect width="70" height="70" fill="white" transform="translate(14 57.5)"/>
</clipPath>
</defs>
</svg>
