<svg width="188" height="193" viewBox="0 0 188 193" fill="none" xmlns="http://www.w3.org/2000/svg">
<path fill-rule="evenodd" clip-rule="evenodd" d="M140.349 44.3139L128.463 56.1993L130.837 67.2889L141.926 69.6626L153.812 57.7772C155.536 65.0783 155.083 68.9781 151.827 75.6013L144.696 82.7325C138.659 85.6915 135.546 86.3965 130.832 84.7164L69.4244 146.124C70.5137 152.459 69.5856 155.504 66.2522 160.384L57.9324 168.704C51.0408 171.356 47.524 171.689 42.089 169.5L53.182 158.407L51.6005 147.317L39.3227 144.548L28.2297 155.641C26.6013 150.028 26.4091 146.667 29.0259 139.797L37.3457 131.478C43.1683 128.186 46.3698 127.739 52.0013 128.701L113.409 67.2933C111.431 62.4264 112.26 59.1743 114.997 53.034L122.128 45.9028C130.488 42.8846 134.477 42.5483 140.349 44.3139ZM65.0731 124.341L106.276 83.1383L113.009 82.7406L114.197 83.9285L115.385 85.1164L114.591 91.4539L73.3886 132.657L65.863 133.055L64.6751 131.867L65.0731 124.341Z" fill="#022C22"/>
<path d="M62.6378 62.6393L55.2132 70.0639L95.4511 110.302L102.876 102.877L62.6378 62.6393Z" fill="#022C22"/>
<path d="M111.703 107.462L100.39 118.776C97.738 117.307 96.9694 116.075 97.7837 112.634L105.208 105.21C108.927 104.275 110.065 105.205 111.703 107.462Z" fill="#022C22"/>
<path d="M114.036 109.795L102.722 121.109L133.338 151.724L144.652 140.411L114.036 109.795Z" fill="#022C22"/>
<path d="M135.671 154.057L136.589 157.804C139.958 158.986 140.692 158.707 141.688 157.953L150.527 149.114C151.175 146.988 151.252 145.85 150.378 144.015L146.984 142.743L135.671 154.057Z" fill="#022C22"/>
<path d="M60.5967 60.5982L53.1721 68.0229C44.2761 67.1157 40.2687 71.3563 35.1846 88.9262C28.324 83.0915 28.2972 77.454 34.0843 63.7843L48.9336 48.9351C47.8729 49.9957 52.6804 49.8535 52.6804 49.8535L57.0287 47.8378L59.8572 45.0094L58.1077 43.2599C60.2083 41.3536 64.3513 37.4828 64.1181 37.2495L74.0318 47.1632L68.0214 53.1736L65.9803 51.1326L64.0449 51.3185L60.1558 55.2076L60.5967 60.5982Z" fill="#022C22"/>
<path fill-rule="evenodd" clip-rule="evenodd" d="M94.0109 9C143.72 9 186.953 51.7944 187.505 101.5C188.064 151.755 144.269 193 94.0109 193C43.753 193 0.446954 151.755 1.00534 101.5C1.55763 51.7944 44.3022 9 94.0109 9ZM12.0109 101.5C12.0109 56.2127 48.7235 19.5 94.0109 19.5C139.298 19.5 176.011 56.2127 176.011 101.5C176.011 107.506 175.365 113.361 174.139 119C166.122 155.879 133.292 183.5 94.0109 183.5C48.7235 183.5 12.0109 146.787 12.0109 101.5Z" fill="#022C22"/>
</svg>
