<svg width="187" height="184" viewBox="0 0 187 184" fill="none" xmlns="http://www.w3.org/2000/svg">
<path d="M155.844 86.6719L149.063 69.7188C148.488 68.2844 147.495 67.0558 146.213 66.1922C144.932 65.3286 143.42 64.8697 141.875 64.875H125.125V61C125.125 59.9723 124.717 58.9867 123.99 58.26C123.263 57.5333 122.278 57.125 121.25 57.125H47.625C45.5696 57.125 43.5983 57.9415 42.1449 59.3949C40.6915 60.8483 39.875 62.8196 39.875 64.875V119.125C39.875 121.18 40.6915 123.152 42.1449 124.605C43.5983 126.058 45.5696 126.875 47.625 126.875H55.8594C56.713 130.209 58.6521 133.164 61.3708 135.275C64.0896 137.385 67.4333 138.53 70.875 138.53C74.3167 138.53 77.6604 137.385 80.3792 135.275C83.0979 133.164 85.037 130.209 85.8906 126.875H110.109C110.963 130.209 112.902 133.164 115.621 135.275C118.34 137.385 121.683 138.53 125.125 138.53C128.567 138.53 131.91 137.385 134.629 135.275C137.348 133.164 139.287 130.209 140.141 126.875H148.375C150.43 126.875 152.402 126.058 153.855 124.605C155.308 123.152 156.125 121.18 156.125 119.125V88.125C156.126 87.627 156.031 87.1335 155.844 86.6719ZM125.125 72.625H141.875L146.525 84.25H125.125V72.625ZM47.625 64.875H117.375V95.875H47.625V64.875ZM70.875 130.75C69.3422 130.75 67.8438 130.295 66.5693 129.444C65.2949 128.592 64.3015 127.382 63.7149 125.966C63.1284 124.55 62.9749 122.991 63.2739 121.488C63.573 119.985 64.3111 118.604 65.3949 117.52C66.4788 116.436 67.8597 115.698 69.3631 115.399C70.8664 115.1 72.4247 115.253 73.8408 115.84C75.2569 116.427 76.4673 117.42 77.3189 118.694C78.1705 119.969 78.625 121.467 78.625 123C78.625 125.055 77.8085 127.027 76.3551 128.48C74.9017 129.933 72.9304 130.75 70.875 130.75ZM110.109 119.125H85.8906C85.037 115.791 83.0979 112.836 80.3792 110.725C77.6604 108.615 74.3167 107.47 70.875 107.47C67.4333 107.47 64.0896 108.615 61.3708 110.725C58.6521 112.836 56.713 115.791 55.8594 119.125H47.625V103.625H117.375V109.588C115.593 110.618 114.033 111.991 112.786 113.628C111.539 115.265 110.629 117.134 110.109 119.125ZM125.125 130.75C123.592 130.75 122.094 130.295 120.819 129.444C119.545 128.592 118.552 127.382 117.965 125.966C117.378 124.55 117.225 122.991 117.524 121.488C117.823 119.985 118.561 118.604 119.645 117.52C120.729 116.436 122.11 115.698 123.613 115.399C125.116 115.1 126.675 115.253 128.091 115.84C129.507 116.427 130.717 117.42 131.569 118.694C132.42 119.969 132.875 121.467 132.875 123C132.875 125.055 132.058 127.027 130.605 128.48C129.152 129.933 127.18 130.75 125.125 130.75ZM148.375 119.125H140.141C139.277 115.799 137.334 112.854 134.617 110.75C131.9 108.646 128.561 107.503 125.125 107.5V92H148.375V119.125Z" fill="#022C22"/>
<path fill-rule="evenodd" clip-rule="evenodd" d="M93.0109 0C142.72 0 185.953 42.7944 186.505 92.5C187.064 142.755 143.269 184 93.0109 184C42.753 184 -0.553046 142.755 0.00534069 92.5C0.557625 42.7944 43.3022 0 93.0109 0ZM11.0109 92.5C11.0109 47.2127 47.7235 10.5 93.0109 10.5C138.298 10.5 175.011 47.2127 175.011 92.5C175.011 98.506 174.365 104.361 173.139 110C165.122 146.879 132.292 174.5 93.0109 174.5C47.7235 174.5 11.0109 137.787 11.0109 92.5Z" fill="#022C22"/>
</svg>
