<svg width="187" height="184" viewBox="0 0 187 184" fill="none" xmlns="http://www.w3.org/2000/svg">
<path d="M145.798 80.3631H94.4438C92.4622 82.1476 92.5761 83.0372 94.4438 84.4722H145.798C147.216 83.1953 147.575 82.3784 145.798 80.3631Z" fill="#022C22"/>
<path fill-rule="evenodd" clip-rule="evenodd" d="M94.7861 86.1844H103.003V96.7996L101.291 110.497C101.243 112.612 101.267 113.692 101.633 114.948C102.047 116.15 102.422 116.593 103.345 117.003H104.715C105.605 116.243 105.854 115.788 106.084 114.948C106.492 113.214 106.514 112.239 106.426 110.497L105.057 96.7996V86.1844H145.114V142H94.4438V86.1844H94.7861ZM110.192 130.7V95.4299H141.005V130.7H110.192Z" fill="#022C22"/>
<path fill-rule="evenodd" clip-rule="evenodd" d="M95.4709 78.651H97.8674H142.717H144.771C142.159 63.6403 137.561 58.34 123.887 54.3386C120.802 53.8925 119.293 53.8818 117.04 54.3386C103.401 58.2901 98.4118 63.3301 95.4709 78.651ZM117.724 56.3932C104.021 59.2472 100.356 65.128 97.525 77.2812H143.059C140.11 66.4771 138.302 60.5047 123.202 56.3932C121.062 56.0465 119.865 56.0209 117.724 56.3932Z" fill="#022C22"/>
<path d="M78 50H39L41.6667 79.488H58H74.3333L78 50Z" fill="#022C22"/>
<path d="M74.3333 82.4699H41.6667V92.4096H74.3333V82.4699Z" fill="#022C22"/>
<path fill-rule="evenodd" clip-rule="evenodd" d="M41.6667 95.3916H74.3333V98.0422C66.1531 103.238 63.3401 105.731 62 109.307L64 144.759V153.373C63.2752 157.083 62.0421 158.48 58.6667 160C55.417 159.375 53.9651 158.089 52.3333 153.373L53 144.759L54.6667 109.307C53.3826 105.088 49.2743 102.561 41.6667 98.0422V95.3916ZM56.3333 155.03C56.3786 153.871 56.6209 153.405 58 153.373C59.2983 153.321 59.5328 153.825 59.6667 155.03L58 156.687L56.3333 155.03Z" fill="#022C22"/>
<path fill-rule="evenodd" clip-rule="evenodd" d="M93.0109 0C142.72 0 185.953 42.7944 186.505 92.5C187.064 142.755 143.269 184 93.0109 184C42.753 184 -0.553046 142.755 0.00534069 92.5C0.557625 42.7944 43.3022 0 93.0109 0ZM11.0109 92.5C11.0109 47.2127 47.7235 10.5 93.0109 10.5C138.298 10.5 175.011 47.2127 175.011 92.5C175.011 98.506 174.365 104.361 173.139 110C165.122 146.879 132.292 174.5 93.0109 174.5C47.7235 174.5 11.0109 137.787 11.0109 92.5Z" fill="#022C22"/>
</svg>
