<svg width="22" height="22" viewBox="0 0 22 22" fill="none" xmlns="http://www.w3.org/2000/svg">
<path fill-rule="evenodd" clip-rule="evenodd" d="M10.75 0C4.813 0 0 4.813 0 10.75C0 16.687 4.813 21.5 10.75 21.5C16.687 21.5 21.5 16.687 21.5 10.75C21.5 4.813 16.687 0 10.75 0ZM14.25 13C13.9185 13 13.6005 13.1317 13.3661 13.3661C13.1317 13.6005 13 13.9185 13 14.25C13 14.5815 13.1317 14.8995 13.3661 15.1339C13.6005 15.3683 13.9185 15.5 14.25 15.5C14.5815 15.5 14.8995 15.3683 15.1339 15.1339C15.3683 14.8995 15.5 14.5815 15.5 14.25C15.5 13.9185 15.3683 13.6005 15.1339 13.3661C14.8995 13.1317 14.5815 13 14.25 13ZM6 7.25C6 6.91848 6.1317 6.60054 6.36612 6.36612C6.60054 6.1317 6.91848 6 7.25 6C7.58152 6 7.89946 6.1317 8.13388 6.36612C8.3683 6.60054 8.5 6.91848 8.5 7.25C8.5 7.58152 8.3683 7.89946 8.13388 8.13388C7.89946 8.3683 7.58152 8.5 7.25 8.5C6.91848 8.5 6.60054 8.3683 6.36612 8.13388C6.1317 7.89946 6 7.58152 6 7.25ZM14.22 6.22C14.2887 6.14631 14.3715 6.08721 14.4635 6.04622C14.5555 6.00523 14.6548 5.98319 14.7555 5.98141C14.8562 5.97963 14.9562 5.99816 15.0496 6.03588C15.143 6.0736 15.2278 6.12974 15.299 6.20096C15.3703 6.27218 15.4264 6.35701 15.4641 6.4504C15.5018 6.54379 15.5204 6.64382 15.5186 6.74452C15.5168 6.84523 15.4948 6.94454 15.4538 7.03654C15.4128 7.12854 15.3537 7.21134 15.28 7.28L7.28 15.28C7.13782 15.4125 6.94978 15.4846 6.75548 15.4812C6.56118 15.4777 6.37579 15.399 6.23838 15.2616C6.10097 15.1242 6.02225 14.9388 6.01883 14.7445C6.0154 14.5502 6.08752 14.3622 6.22 14.22L14.22 6.22Z" fill="#033126"/>
</svg>
