<svg width="187" height="184" viewBox="0 0 187 184" fill="none" xmlns="http://www.w3.org/2000/svg">
<path fill-rule="evenodd" clip-rule="evenodd" d="M93.0109 0C142.72 0 185.953 42.7944 186.505 92.5C187.064 142.755 143.269 184 93.0109 184C42.753 184 -0.553046 142.755 0.00534069 92.5C0.557625 42.7944 43.3022 0 93.0109 0ZM11.0109 92.5C11.0109 47.2127 47.7235 10.5 93.0109 10.5C138.298 10.5 175.011 47.2127 175.011 92.5C175.011 98.506 174.365 104.361 173.139 110C165.122 146.879 132.292 174.5 93.0109 174.5C47.7235 174.5 11.0109 137.787 11.0109 92.5Z" fill="#022C22"/>
<path d="M44.8823 118.619H57.7035C58.0873 110.5 59.5746 107.147 66.3767 105.078C69.0644 104.689 71.673 104.923 74.6727 105.753C81.1794 109.559 85.5266 111.396 89.5679 112.036C93.8754 112.977 96.2904 112.856 100.598 112.036C103.148 111.438 105.317 110.699 107.763 109.578C110.251 107.14 112.855 105.704 116.153 105.078H129.917V88.4332H116.153C112.806 87.6012 111.33 86.7922 109.931 84.2956H79.1036C77.8009 86.6469 76.9839 87.8159 74.6727 88.4332L74.3001 88.4727C64.6653 89.494 59.1494 90.0788 52.707 93.8873C48.6403 96.633 47.5698 98.5988 45.825 102.162L44.8823 118.619Z" fill="#022C22"/>
<path d="M43.1854 133.665C42.1817 138.833 41.3357 141.568 39.3202 146.078C38.8839 147.993 38.9027 148.91 39.3202 150.309C41.8465 153.251 43.1495 154.094 46.3907 151.25C47.1072 149.597 47.4389 148.018 46.9563 146.078C44.8138 140.936 44.2188 138.319 43.1854 133.665Z" fill="#022C22"/>
<path d="M49.5017 120.876C50.4745 125.47 52.707 130.844 52.707 130.844C53.2075 131.786 53.2209 134.507 52.707 135.263C51.6884 137.034 50.9558 137.41 49.5017 137.52C48.24 137.279 47.554 137.057 46.6735 135.263C46.2678 133.878 46.2209 132.95 46.6735 130.844C48.0225 128.018 48.6885 126.039 49.5017 120.876Z" fill="#022C22"/>
<path d="M76.3696 82.6029H111.816V78.8415H76.3696V82.6029Z" fill="#022C22"/>
<path d="M80.2349 74.986V77.1488H107.763V74.986H80.2349Z" fill="#022C22"/>
<path d="M83.6287 67.0869H104.557V73.2933H83.6287V67.0869Z" fill="#022C22"/>
<path d="M86.1741 60.6924H102.012V65.6764H86.1741V60.6924Z" fill="#022C22"/>
<path d="M90.3221 44.048C90.1639 41.9466 91.7945 40.1095 93.9045 40.0044C96.1147 39.8944 98.0298 41.8468 97.864 44.048C97.7097 46.0978 95.9627 47.6298 93.9045 47.5274C91.9543 47.4303 90.4684 45.9903 90.3221 44.048Z" fill="#022C22"/>
<path d="M99.6552 41.509V45.7407L115.21 47.5274V40.0044L99.6552 41.509Z" fill="#022C22"/>
<path d="M72.3159 40.0044L88.1538 41.509V45.7407L72.3159 47.5274V40.0044Z" fill="#022C22"/>
<path d="M91.7362 55.8966V49.22H96.2614V55.8966H91.7362Z" fill="#022C22"/>
<path d="M136.516 86.8346L136.988 107.335H173V86.8346H136.516Z" fill="#022C22"/>
<path d="M131.048 85.0479H134.725V108.933H131.048V85.0479Z" fill="#022C22"/>
<path d="M87.2111 57.5892H100.598V59.47H87.2111V57.5892Z" fill="#022C22"/>
</svg>
