<svg width="204" height="204" viewBox="0 0 204 204" fill="none" xmlns="http://www.w3.org/2000/svg">
<path d="M136 85C136 94.0174 132.418 102.665 126.042 109.042C119.665 115.418 111.017 119 102 119C92.9826 119 84.3346 115.418 77.9584 109.042C71.5821 102.665 68 94.0174 68 85C68 75.9826 71.5821 67.3346 77.9584 60.9584C84.3346 54.5821 92.9826 51 102 51C111.017 51 119.665 54.5821 126.042 60.9584C132.418 67.3346 136 75.9826 136 85Z" fill="#022C22"/>
<path fill-rule="evenodd" clip-rule="evenodd" d="M98.532 186.932C53.1973 185.113 17 147.781 17 102C17 55.0545 55.0545 17 102 17C148.945 17 187 55.0545 187 102C187 148.945 148.945 187 102 187C101.612 187.003 101.224 187.003 100.835 187C100.066 187 99.297 186.975 98.532 186.932ZM47.4555 155.635C46.82 153.81 46.6037 151.865 46.8226 149.945C47.0415 148.025 47.6901 146.179 48.7202 144.544C49.7503 142.908 51.1354 141.526 52.7728 140.5C54.4101 139.473 56.2577 138.829 58.1783 138.614C91.3113 134.946 112.893 135.277 145.864 138.69C147.787 138.891 149.639 139.527 151.279 140.551C152.919 141.576 154.304 142.96 155.328 144.601C156.352 146.241 156.988 148.093 157.188 150.016C157.387 151.94 157.146 153.883 156.481 155.699C170.612 141.401 178.525 122.102 178.5 102C178.5 59.7508 144.249 25.5 102 25.5C59.7508 25.5 25.5 59.7508 25.5 102C25.5 122.893 33.8768 141.831 47.4555 155.635Z" fill="#022C22"/>
</svg>
