<svg width="187" height="184" viewBox="0 0 187 184" fill="none" xmlns="http://www.w3.org/2000/svg">
<path d="M123.039 36.1253H102.047C98.2535 36.1374 98.3954 41.7908 102.047 41.7576H123.039V44.6477H102.047C98.2746 44.6145 98.4135 50.2649 102.047 50.28H123.039V53.2336H102.047C98.2746 53.2336 98.4135 58.881 102.047 58.8659H123.039V61.6805H102.047C98.3531 61.7077 98.4135 67.3611 102.047 67.3793H123.039V70.1999H102.047C98.3531 70.1879 98.338 75.8322 102.047 75.8322H123.039V78.6469H102.047C98.3531 78.659 98.338 84.3094 102.047 84.2822H123.039V87.1663H102.047C98.3531 87.1331 98.338 92.7775 102.047 92.7986H123.039V95.6072H102.047C98.3531 95.6042 98.4135 101.261 102.047 101.243H123.039V156.083C123.051 164.439 135.744 164.288 135.78 156.083V27.7478C135.744 23.9305 132.609 19.1046 127.451 19.0895H102.047C98.2535 19.0925 98.3954 24.7459 102.047 24.7218L123.039 24.7912V27.5998H102.047C98.2595 27.5817 98.4015 33.2321 102.047 33.2351H123.039V36.1253ZM100.603 133.351C100.591 123.597 90.48 113.105 78.4 119.9V82.591L70.5873 21.0585C70.4242 19.4307 69.044 19.0472 68.1169 19.02C67.1596 19.0472 65.2419 19.4307 65.0335 21.0585L57.26 82.591V119.9C45.18 113.105 35.3952 123.663 35.3922 133.276C35.3952 141.828 41.9788 148.853 50.8878 148.832C59.8632 148.853 66.32 140.98 66.32 133.276V94.52H69.34V133.276C69.34 141.901 76.0202 148.285 83.4434 148.69C83.3196 153.419 84.8628 160.166 87.768 162.841C91.1746 165.982 95.2305 161.966 93.5664 158.695C91.9598 155.651 90.3834 153.848 91.6638 147.201C97.0153 144.724 100.591 139.512 100.603 133.351ZM51.2321 141.025C49.1957 141.025 47.2426 140.216 45.8027 138.776C44.3627 137.336 43.5537 135.383 43.5537 133.347C43.5537 131.31 44.3627 129.357 45.8027 127.917C47.2426 126.477 49.1957 125.668 51.2321 125.668C55.4178 125.692 58.8274 129.126 58.8576 133.351C58.849 135.375 58.0443 137.315 56.6175 138.751C55.1907 140.187 53.2562 141.004 51.2321 141.025ZM77.1165 133.351C77.1235 131.325 77.9278 129.383 79.3554 127.945C80.7829 126.508 82.719 125.69 84.745 125.668C86.7717 125.687 88.7093 126.504 90.1371 127.942C91.5648 129.381 92.3674 131.324 92.3705 133.351C92.3674 135.377 91.5645 137.32 90.1365 138.757C88.7085 140.194 86.7709 141.009 84.745 141.025C82.7196 141.007 80.783 140.191 79.3551 138.754C77.9271 137.318 77.1228 135.377 77.1165 133.351Z" fill="#022C22"/>
<path fill-rule="evenodd" clip-rule="evenodd" d="M93.0109 0C142.72 0 185.953 42.7944 186.505 92.5C187.064 142.755 143.269 184 93.0109 184C42.753 184 -0.553046 142.755 0.00534069 92.5C0.557625 42.7944 43.3022 0 93.0109 0ZM11.0109 92.5C11.0109 47.2127 47.7235 10.5 93.0109 10.5C138.298 10.5 175.011 47.2127 175.011 92.5C175.011 98.506 174.365 104.361 173.139 110C165.122 146.879 132.292 174.5 93.0109 174.5C47.7235 174.5 11.0109 137.787 11.0109 92.5Z" fill="#022C22"/>
</svg>
