<svg width="229" height="256" viewBox="0 0 229 256" fill="none" xmlns="http://www.w3.org/2000/svg">
<g clip-path="url(#clip0_121_4)">
<path fill-rule="evenodd" clip-rule="evenodd" d="M59.521 52.5428C58.0827 50.6243 57.0629 48.4598 56.5199 46.173C55.977 43.8862 55.9214 41.5218 56.3565 39.2149C56.7916 36.908 57.7087 34.7038 59.0555 32.7282C60.4023 30.7526 62.1525 29.0443 64.2059 27.7009L114.5 94.8256L164.794 27.7009C166.848 29.0443 168.598 30.7526 169.945 32.7282C171.291 34.7038 172.209 36.908 172.644 39.2149C173.079 41.5218 173.023 43.8862 172.48 46.173C171.937 48.4598 170.917 50.6243 169.479 52.5428L126.15 110.376L147.333 138.642C155.887 135.259 165.468 134.908 174.279 137.654C183.091 140.399 190.529 146.053 195.199 153.557C199.023 159.701 200.776 166.739 200.296 173.763C200.19 175.317 199.974 176.87 199.647 178.412C197.844 186.927 192.78 194.536 185.404 199.811C181.144 202.859 176.281 205.007 171.147 206.163C167.393 207.009 163.494 207.323 159.581 207.071C150.314 206.474 141.599 202.739 135.068 196.567C128.537 190.395 124.638 182.209 124.103 173.543C123.568 164.877 126.434 156.327 132.162 149.494L114.51 125.918L96.8384 149.503C102.567 156.336 105.432 164.886 104.897 173.552C104.362 182.218 100.463 190.404 93.9325 196.576C87.4015 202.748 78.6861 206.483 69.4196 207.08C65.5122 207.332 61.6198 207.019 57.8716 206.176C52.7309 205.021 47.8613 202.871 43.5956 199.82C36.2196 194.545 31.1557 186.936 29.3526 178.421C29.0253 176.875 28.8096 175.319 28.7036 173.762C28.2257 166.742 29.9791 159.707 33.8013 153.566C38.4713 146.062 45.9091 140.408 54.7207 137.662C63.5323 134.917 73.113 135.268 81.6672 138.651L102.85 110.376L59.521 52.5428ZM66.7917 153.667C61.7305 153.667 56.8766 155.546 53.2977 158.89C49.7189 162.234 47.7084 166.77 47.7084 171.5C47.7084 176.23 49.7189 180.766 53.2977 184.11C56.8766 187.454 61.7305 189.333 66.7917 189.333C71.8529 189.333 76.7068 187.454 80.2857 184.11C83.8645 180.766 85.875 176.23 85.875 171.5C85.875 166.77 83.8645 162.234 80.2857 158.89C76.7068 155.546 71.8529 153.667 66.7917 153.667ZM162.208 153.667C157.147 153.667 152.293 155.546 148.714 158.89C145.136 162.234 143.125 166.77 143.125 171.5C143.125 176.23 145.136 180.766 148.714 184.11C152.293 187.454 157.147 189.333 162.208 189.333C167.27 189.333 172.123 187.454 175.702 184.11C179.281 180.766 181.292 176.23 181.292 171.5C181.292 166.77 179.281 162.234 175.702 158.89C172.123 155.546 167.27 153.667 162.208 153.667Z" fill="#2DD4BF"/>
<path d="M69.4196 17.543C82.9951 12.317 98.1448 9.5 114.5 9.5C130.826 9.5 145.98 12.307 159.581 17.515L147.333 33.3229C137.066 29.6824 126.015 27.7009 114.5 27.7009C102.467 27.7009 90.9398 29.8648 80.2857 33.8245L69.4196 17.543Z" fill="#2DD4BF"/>
<path d="M199.647 178.412C197.844 186.927 192.78 194.536 185.404 199.811C181.144 202.859 176.281 205.007 171.147 206.163C155.14 217.484 135.597 224.135 114.5 224.135C93.4114 224.135 73.8751 217.489 57.8716 206.176C52.7309 205.021 47.8613 202.871 43.5956 199.82C36.2196 194.545 31.1557 186.936 29.3526 178.421C29.0253 176.875 28.8096 175.319 28.7036 173.762C20.792 159.605 16.283 143.288 16.283 125.918C16.283 97.4685 28.3788 71.8442 47.7084 53.9072L37.2685 36.8495C13.514 57.6267 -0.499998 88.8941 -0.5 125.918C-0.500004 193.804 46.6143 241.5 114.5 241.5C182.386 241.5 230 193.804 230 125.918C230 88.8941 215.837 57.6267 191.948 36.8495L181.292 53.9072C200.621 71.8442 212.717 97.4685 212.717 125.918C212.717 143.289 208.208 159.606 200.296 173.763C200.19 175.317 199.974 176.87 199.647 178.412Z" fill="#2DD4BF"/>
</g>
<defs>
<clipPath id="clip0_121_4">
<rect width="229" height="256" fill="white"/>
</clipPath>
</defs>
</svg>
