<svg width="270" height="284" viewBox="0 0 270 284" fill="none" xmlns="http://www.w3.org/2000/svg">
<path d="M52.4144 185.04H74.189C74.8408 171.272 77.3666 165.587 88.9188 162.078C93.4835 161.418 97.9137 161.815 103.008 163.223C114.059 169.677 121.442 172.791 128.305 173.878C135.621 175.472 139.722 175.268 147.038 173.878C151.368 172.863 155.053 171.61 159.206 169.709C163.433 165.575 167.855 163.141 173.455 162.078H196.831V133.854H173.455C167.771 132.443 165.264 131.071 162.888 126.838H110.533C108.321 130.825 106.933 132.807 103.008 133.854L102.375 133.921C86.0125 135.653 76.6445 136.644 65.7033 143.102C58.7967 147.758 56.9787 151.092 54.0155 157.135L52.4144 185.04Z" fill="#1F3F20"/>
<path d="M19.694 149C19.694 85.2646 71.6183 33.5968 135.67 33.5968C191.083 33.5968 237.42 72.2675 248.91 123.968H269.012C257.217 61.3695 202.003 14 135.67 14C60.7416 14 0 74.4416 0 149C0 178.211 9.3238 205.256 25.1716 227.347L39.3252 213.263C26.9275 194.896 19.694 172.789 19.694 149Z" fill="#1F3F20"/>
<path d="M49.5325 210.553C47.828 219.316 46.3911 223.954 42.9681 231.601C42.2272 234.849 42.2592 236.403 42.9681 238.776C47.2586 243.765 49.4715 245.194 54.9761 240.371C56.1931 237.568 56.7564 234.891 55.9367 231.601C52.2981 222.882 51.2876 218.445 49.5325 210.553Z" fill="#1F3F20"/>
<path d="M60.2596 188.867C61.9118 196.658 65.7033 205.769 65.7033 205.769C66.5533 207.367 66.576 211.98 65.7033 213.263C63.9734 216.266 62.7293 216.904 60.2596 217.09C58.1169 216.682 56.9519 216.305 55.4564 213.263C54.7674 210.915 54.6877 209.34 55.4564 205.769C57.7475 200.977 58.8786 197.623 60.2596 188.867Z" fill="#1F3F20"/>
<path d="M105.89 123.968H166.09V117.589H105.89V123.968Z" fill="#1F3F20"/>
<path d="M112.455 111.052V114.719H159.206V111.052H112.455Z" fill="#1F3F20"/>
<path d="M118.218 97.6574H153.762V108.181H118.218V97.6574Z" fill="#1F3F20"/>
<path d="M122.541 86.8143H149.439V95.2655H122.541V86.8143Z" fill="#1F3F20"/>
<path d="M129.586 58.5905C129.317 55.0271 132.087 51.9121 135.67 51.7339C139.424 51.5472 142.676 54.858 142.395 58.5905C142.132 62.0663 139.166 64.6642 135.67 64.4904C132.358 64.3257 129.834 61.884 129.586 58.5905Z" fill="#1F3F20"/>
<path d="M145.437 54.2852V61.4607L171.854 64.4904V51.7339L145.437 54.2852Z" fill="#1F3F20"/>
<path d="M99.0056 51.7339L125.904 54.2852V61.4607L99.0056 64.4904V51.7339Z" fill="#1F3F20"/>
<path d="M131.988 78.682V67.3606H139.673V78.682H131.988Z" fill="#1F3F20"/>
<path d="M208.039 131.143L208.839 165.905H270V131.143H208.039Z" fill="#1F3F20"/>
<path d="M198.752 128.114H204.997V168.616H198.752V128.114Z" fill="#1F3F20"/>
<path d="M269.012 174.032C257.217 236.631 202.003 284 135.67 284C104.29 284 75.3982 273.399 52.4144 255.6L64.8181 240.371C84.4137 255.438 108.99 264.403 135.67 264.403C191.139 264.403 237.512 225.655 248.945 173.878H251.646L269.012 174.032Z" fill="#1F3F20"/>
<path d="M124.302 81.5522H147.038V84.7414H124.302V81.5522Z" fill="#1F3F20"/>
</svg>
