<svg width="24" height="24" viewBox="0 0 24 24" fill="none" xmlns="http://www.w3.org/2000/svg">
<g clip-path="url(#clip0_2_9)">
<mask id="mask0_2_9" style="mask-type:luminance" maskUnits="userSpaceOnUse" x="0" y="0" width="24" height="24">
<path d="M0 0H24V24H0V0Z" fill="white"/>
</mask>
<g mask="url(#mask0_2_9)">
<path fill-rule="evenodd" clip-rule="evenodd" d="M17.835 6.1665C17.0689 5.40001 16.1592 4.79197 15.158 4.37712C14.1568 3.96228 13.0837 3.74876 12 3.74876C10.9163 3.74876 9.84315 3.96228 8.84196 4.37712C7.84078 4.79197 6.93113 5.40001 6.165 6.1665C2.2665 10.0665 2.985 14.652 4.575 16.2435C4.78593 16.4542 5.07187 16.5725 5.37 16.5725C5.66812 16.5725 5.95406 16.4542 6.165 16.2435L7.5525 14.856C7.17034 14.2181 6.94725 13.4977 6.90209 12.7554C6.85692 12.0132 6.991 11.271 7.293 10.5915L8.1135 8.7465C8.21228 8.52418 8.36366 8.32922 8.55457 8.17844C8.74549 8.02766 8.97021 7.92557 9.20937 7.88099C9.44853 7.83641 9.69494 7.85066 9.92737 7.92253C10.1598 7.99439 10.3712 8.12171 10.5435 8.2935L10.8285 8.5785L11.9535 7.4535C12.058 7.349 12.1821 7.26611 12.3186 7.20955C12.4551 7.153 12.6015 7.12389 12.7492 7.12389C12.897 7.12389 13.0434 7.153 13.1799 7.20955C13.3164 7.26611 13.4405 7.349 13.545 7.4535C13.6495 7.558 13.7324 7.68206 13.7889 7.81859C13.8455 7.95513 13.8746 8.10146 13.8746 8.24925C13.8746 8.39703 13.8455 8.54337 13.7889 8.6799C13.7324 8.81644 13.6495 8.9405 13.545 9.045L12.42 10.17L13.83 11.58L14.955 10.455C15.058 10.3445 15.1822 10.2558 15.3202 10.1943C15.4582 10.1328 15.6072 10.0998 15.7582 10.0971C15.9093 10.0944 16.0593 10.1222 16.1994 10.1788C16.3395 10.2354 16.4667 10.3196 16.5736 10.4264C16.6804 10.5333 16.7646 10.6605 16.8212 10.8006C16.8778 10.9407 16.9055 11.0907 16.9029 11.2418C16.9002 11.3928 16.8672 11.5418 16.8057 11.6798C16.7442 11.8178 16.6555 11.942 16.545 12.045L15.42 13.17L15.705 13.455C15.8772 13.627 16.005 13.8384 16.0772 14.0708C16.1495 14.3033 16.1641 14.5498 16.1198 14.7892C16.0755 15.0285 15.9736 15.2535 15.823 15.4447C15.6723 15.6358 15.4774 15.7875 15.255 15.8865L13.4085 16.707C12.729 17.0091 11.9868 17.1433 11.2446 17.0981C10.5023 17.0529 9.78183 16.8298 9.144 16.4475L7.758 17.8335C7.4446 18.1469 7.07254 18.3955 6.66306 18.5651C6.25359 18.7347 5.81471 18.822 5.3715 18.822C4.92828 18.822 4.48941 18.7347 4.07993 18.5651C3.67045 18.3955 3.29839 18.1469 2.985 17.8335C0.332997 15.183 -0.0105035 9.1605 4.575 4.575C5.88579 3.26511 7.51991 2.32546 9.31137 1.85148C11.1028 1.37749 12.9878 1.38607 14.7749 1.87632C16.562 2.36657 18.1875 3.32105 19.4863 4.6428C20.7851 5.96455 21.711 7.60649 22.17 9.40187C22.6289 11.1973 22.6045 13.0821 22.0992 14.865C21.594 16.6479 20.6259 18.2653 19.2933 19.553C17.9607 20.8407 16.311 21.7528 14.5118 22.1966C12.7127 22.6404 10.8281 22.6002 9.0495 22.08C8.76306 21.9965 8.52155 21.8025 8.37808 21.5409C8.30705 21.4114 8.26222 21.2691 8.24616 21.1223C8.2301 20.9754 8.24313 20.8268 8.2845 20.685C8.32586 20.5432 8.39476 20.4109 8.48725 20.2957C8.57974 20.1805 8.69402 20.0846 8.82356 20.0136C9.08517 19.8701 9.39306 19.8365 9.6795 19.92C11.4384 20.436 13.319 20.3515 15.0245 19.6799C16.73 19.0084 18.1633 17.7879 19.0982 16.2113C20.0331 14.6346 20.4162 12.7915 20.1872 10.9729C19.9582 9.15424 19.1301 7.46368 17.8335 6.168L17.835 6.1665ZM9.348 11.5065L9.726 10.6575L13.3425 14.274L12.4935 14.652C12.0532 14.8476 11.5639 14.9052 11.0902 14.8172C10.6165 14.7291 10.1805 14.4996 9.83993 14.1588C9.4993 13.818 9.26996 13.382 9.18214 12.9082C9.09432 12.4345 9.15215 11.9467 9.348 11.5065Z" fill="#033126"/>
</g>
</g>
<defs>
<clipPath id="clip0_2_9">
<rect width="24" height="24" fill="white"/>
</clipPath>
</defs>
</svg>
