<svg width="187" height="185" viewBox="0 0 187 185" fill="none" xmlns="http://www.w3.org/2000/svg">
<path fill-rule="evenodd" clip-rule="evenodd" d="M142.349 28.3139L130.463 40.1993L132.837 51.2889L143.926 53.6626L155.812 41.7772C157.536 49.0783 157.083 52.9781 153.827 59.6013L146.696 66.7325C140.659 69.6915 137.546 70.3965 132.832 68.7164L71.4244 130.124C72.5137 136.459 71.5856 139.504 68.2522 144.384L59.9324 152.704C53.0408 155.356 49.524 155.689 44.089 153.5L55.182 142.407L53.6005 131.317L41.3227 128.548L30.2297 139.641C28.6013 134.028 28.4091 130.667 31.0259 123.797L39.3457 115.478C45.1683 112.186 48.3698 111.739 54.0013 112.701L115.409 51.2933C113.431 46.4264 114.26 43.1743 116.997 37.034L124.128 29.9028C132.488 26.8846 136.477 26.5483 142.349 28.3139ZM67.0731 108.341L108.276 67.1383L115.009 66.7406L116.197 67.9285L117.385 69.1164L116.591 75.4539L75.3886 116.657L67.863 117.055L66.6751 115.867L67.0731 108.341Z" fill="#2DD4BF"/>
<path d="M64.6378 46.6393L57.2132 54.0639L97.4511 94.3018L104.876 86.8772L64.6378 46.6393Z" fill="#2DD4BF"/>
<path d="M113.703 91.4622L102.39 102.776C99.738 101.307 98.9694 100.075 99.7837 96.6344L107.208 89.2098C110.927 88.275 112.065 89.2046 113.703 91.4622Z" fill="#2DD4BF"/>
<path d="M116.036 93.7948L104.722 105.109L135.338 135.724L146.652 124.411L116.036 93.7948Z" fill="#2DD4BF"/>
<path d="M137.671 138.057L138.589 141.804C141.958 142.986 142.692 142.707 143.688 141.953L152.527 133.114C153.175 130.988 153.252 129.85 152.378 128.015L148.984 126.743L137.671 138.057Z" fill="#2DD4BF"/>
<path d="M62.5967 44.5982L55.1721 52.0229C46.2761 51.1157 42.2687 55.3563 37.1846 72.9262C30.324 67.0915 30.2972 61.454 36.0843 47.7843L50.9336 32.9351C49.8729 33.9957 54.6804 33.8535 54.6804 33.8535L59.0287 31.8378L61.8572 29.0094L60.1077 27.2599C62.2083 25.3536 66.3513 21.4828 66.1181 21.2495L76.0318 31.1632L70.0214 37.1736L67.9803 35.1326L66.0449 35.3185L62.1558 39.2076L62.5967 44.5982Z" fill="#2DD4BF"/>
<path fill-rule="evenodd" clip-rule="evenodd" d="M93.0055 0.5C142.714 0.5 185.948 43.2944 186.5 93C187.058 143.255 143.263 184.5 93.0055 184.5C42.7476 184.5 -0.558417 143.255 -3.04054e-05 93C0.552254 43.2944 43.2968 0.5 93.0055 0.5ZM11.0055 93C11.0055 47.7127 47.7182 11 93.0055 11C138.293 11 175.005 47.7127 175.005 93C175.005 99.006 174.36 104.861 173.134 110.5C165.117 147.379 132.287 175 93.0055 175C47.7182 175 11.0055 138.287 11.0055 93Z" fill="#2DD4BF"/>
</svg>
