<svg width="1440" height="387" viewBox="0 0 1440 387" fill="none" xmlns="http://www.w3.org/2000/svg">
<path d="M407.5 314C381.292 312.372 353.408 308.537 324.822 303.14C276.954 309.022 230.025 311.642 187.5 309C112.456 304.338 23.6752 281.582 -56 255.884V387H2000V159C2000 159 1857.7 258.144 1753.5 261.5C1708.03 262.964 1672.79 249.338 1641.11 229.51C1605.35 244.172 1567.41 255.408 1533.5 256.5C1408.6 260.523 1360.92 150.687 1252.11 111.231C1094.6 138.686 942.5 209 942.5 209C942.5 209 620.007 327.203 407.5 314Z" fill="#064E3B"/>
<path d="M1533.5 256.5C1567.41 255.408 1605.35 244.172 1641.11 229.51C1576.84 189.282 1527.22 123.529 1436.5 106.5C1380.66 96.0182 1315.94 100.106 1252.11 111.231C1360.92 150.687 1408.6 260.523 1533.5 256.5Z" fill="#2DD4BF"/>
<path d="M407.5 314C620.007 327.203 942.5 209 942.5 209C942.5 209 1094.6 138.686 1252.11 111.231C1240.94 107.178 1229.12 103.868 1216.5 101.5C1022.85 65.152 722.5 204 722.5 204C722.5 204 516.161 279.629 324.822 303.14C353.408 308.537 381.292 312.372 407.5 314Z" fill="#2DD4BF"/>
<path d="M-56 255.884C23.6752 281.582 112.456 304.338 187.5 309C230.025 311.642 276.954 309.022 324.822 303.14C147.869 269.735 -56 176.5 -56 176.5V255.884Z" fill="#2DD4BF"/>
<path d="M1753.5 261.5C1857.7 258.144 2000 159 2000 159V0L1780 154C1780 154 1715.24 199.117 1641.11 229.51C1672.79 249.338 1708.03 262.964 1753.5 261.5Z" fill="#2DD4BF"/>
</svg>
